/* XPM */
static char *de766fa1b81c4656b8ec06375bc22d0cIfwpVTOmITQq6VTU[] = {
/* columns rows colors chars-per-pixel */
"64 64 215 2 ",
"   c #000D0F",
".  c #0A170E",
"X  c #020F10",
"o  c #090E13",
"O  c #041112",
"+  c #091516",
"@  c #0C1A15",
"#  c #0A1618",
"$  c #0D1A1B",
"%  c #1B1917",
"&  c #101D1D",
"*  c #0F201B",
"=  c #14221D",
"-  c #1B221B",
";  c #21211F",
":  c #26391B",
">  c #121F20",
",  c #142223",
"<  c #182625",
"1  c #1C2B23",
"2  c #1A2729",
"3  c #1D2A2B",
"4  c #1E3122",
"5  c #212324",
"6  c #222D24",
"7  c #202C2E",
"8  c #302B2C",
"9  c #233324",
"0  c #2B3C26",
"q  c #243329",
"w  c #263928",
"e  c #2B3C2B",
"r  c #212F31",
"t  c #253133",
"y  c #2B3A34",
"u  c #2C393B",
"i  c #333330",
"p  c #3D5E15",
"a  c #3D5A1D",
"s  c #3E601F",
"d  c #2F412E",
"f  c #324525",
"g  c #33452B",
"h  c #344A2A",
"j  c #384C29",
"k  c #3B5724",
"l  c #3F5D24",
"z  c #3D532B",
"x  c #334431",
"c  c #354537",
"v  c #394D32",
"b  c #3D5233",
"n  c #3D5935",
"m  c #425D1B",
"M  c #476917",
"N  c #41631B",
"B  c #405723",
"V  c #425E25",
"C  c #425D2A",
"Z  c #44493F",
"A  c #415533",
"S  c #445C33",
"D  c #475B38",
"F  c #436224",
"G  c #466B23",
"H  c #44632A",
"J  c #496528",
"K  c #496A2C",
"L  c #4B7223",
"P  c #4E722D",
"I  c #507424",
"U  c #52742C",
"Y  c #557D2D",
"T  c #597D2D",
"R  c #466133",
"E  c #4C6232",
"W  c #4C6B33",
"Q  c #4E663A",
"!  c #546A38",
"~  c #546E3B",
"^  c #4E7233",
"/  c #527335",
"(  c #597535",
")  c #557D33",
"_  c #5C7B33",
"`  c #59793A",
"'  c #5C7E3B",
"]  c #607E2E",
"[  c #637F36",
"{  c #617E3E",
"}  c #384547",
"|  c #394748",
" . c #434C47",
".. c #424E50",
"X. c #465355",
"o. c #4C5A5A",
"O. c #575F55",
"+. c #536B42",
"@. c #5F7C40",
"#. c #5E7846",
"$. c #5C6653",
"%. c #627E41",
"&. c #64685D",
"*. c #627C50",
"=. c #546162",
"-. c #747D6D",
";. c #626F71",
":. c #5C881F",
">. c #558326",
",. c #598326",
"<. c #5A8926",
"1. c #55832C",
"2. c #59842C",
"3. c #568829",
"4. c #5C892A",
"5. c #568232",
"6. c #5A8333",
"7. c #5D8A33",
"8. c #5D813A",
"9. c #679226",
"0. c #63912D",
"q. c #638234",
"w. c #668738",
"e. c #6A8C3B",
"r. c #659233",
"t. c #6C9433",
"y. c #689637",
"u. c #6D9B34",
"i. c #65943A",
"p. c #6D9A3B",
"a. c #749736",
"s. c #769E35",
"d. c #72953A",
"f. c #739A3A",
"g. c #789E3B",
"h. c #7EAA26",
"j. c #76A42C",
"k. c #7AA62D",
"l. c #7CAA2C",
"z. c #76A133",
"x. c #79A433",
"c. c #74A43D",
"v. c #7BA23A",
"b. c #5C8040",
"n. c #628343",
"m. c #688749",
"M. c #708C48",
"N. c #6E9448",
"B. c #759843",
"V. c #74934C",
"C. c #7F9E49",
"Z. c #6D8955",
"A. c #748E54",
"S. c #6E9057",
"D. c #75925A",
"F. c #7DA249",
"G. c #7A8C65",
"H. c #7F956E",
"J. c #7FA064",
"K. c #80A82B",
"L. c #8AB72B",
"P. c #8EBC2A",
"I. c #91BF27",
"U. c #91BE2D",
"Y. c #81A635",
"T. c #83AB33",
"R. c #83A73D",
"E. c #8AAF38",
"W. c #8AB336",
"Q. c #8FBB36",
"!. c #8DB43A",
"~. c #91BC31",
"^. c #90B63F",
"/. c #91BC3A",
"(. c #8EC027",
"). c #91C226",
"_. c #92C12B",
"`. c #9CC639",
"'. c #88AA47",
"]. c #8DB442",
"[. c #8EB54F",
"{. c #92B94B",
"}. c #8AAB57",
"|. c #849B6E",
" X c #89A96A",
".X c #9AB86D",
"XX c #90AB72",
"oX c #A0B776",
"OX c #9FC848",
"+X c #9FC656",
"@X c #999F94",
"#X c #9BB486",
"$X c #A1BE8C",
"%X c #A4AB99",
"&X c #A7B999",
"*X c #B0BE9C",
"=X c #AEB1A6",
"-X c #ACC29A",
";X c #B4CB9B",
":X c #B9D192",
">X c #B8CCA4",
",X c #BBCBAC",
"<X c #BDC5B7",
"1X c #C3D4AF",
"2X c #CBE0B9",
"3X c #D1E5BC",
"4X c #C8CDC1",
"5X c #D0D3CC",
"6X c #D7E4C6",
"7X c #DFEDD1",
"8X c #E7F5CE",
"9X c #E1EDD1",
"0X c #EAF9D0",
"qX c #E7F2DA",
"wX c #EDF7E2",
/* pixels */
"X   X   O     X   X   X     #     X , 3 O X X                 X O     O O X X       X X       X X                               ",
"  X O   X # O   X X             X   X #     O                   X   X X         X X   X       X                                 ",
"  X     # 3 >     X   X X O   O O         X O                     X X X     X X X O X     X X                                   ",
"    X   X # O     X   X X X       X O X O   X                     O X     O X X   X X     X X                                   ",
"    O         X       X X O & + X O O   O     X X                 O X   O X       X X X                                         ",
"X   X   O O O X         X + 2 $ X X     O   X                   X O     O     O O X X X X     X                                 ",
"X X O           X X         + X     X   O O X                   X O     O   O $ # O     X     X X                               ",
"X     X X O   X       X X O   X   O O X     X X   X X       X     O     O   + < > O X   O     X X                               ",
"  X   X X O   X X   X X   X   X X O X     X X     O O X   X O X O X X X     X O X + t O O     X                                 ",
"  O     X     O X       X X         X O X     O O # # O X   X X + X   X O O       X , X O O                                     ",
"    X     O +     X   X X     O     X X       X O O O O       O r > X   X X X O O       X O                                     ",
"X X O X X     X O X   O # O     X O X     O X       X     X O O + O O # & # + O O X           X X                               ",
"X             X X   X # # O       X       O O     X O + = < 1 1 1 1 6 6 1 < = # # = & # X   X X                                 ",
"X X X O O O + t #   X X       X X   X O       X O + = q e g f f f h h f g g x x x d e e =   O                                   ",
"  O   O X X 2 ;.2   + O   O       X X   O + + @ 1 e g f k B C V C C C C C z z z z z z z D v h O O                               ",
"X X < 7 X O O > O O u t O X   X   O X   $ t y v Q ' ( U T N N F F V F V C H C C C C C C C W ( j @         X                     ",
"X   + O O X       + X.} O O   O X   O & w A ~ w.d.g.v.v.v.e.N K K H F V V V V F V H H C V V N M M         X O                   ",
"O X O   X   X X O   + O X O   O   O = v ~ e.f.s.x.x.x.s.g.B.Y U ^ K F H H F F F J K J l V V F N p .   O O     X X               ",
"    X   X   X     O X O O   O O O = h { d.z.x.v.x.x.s.s.g.B.I N N N s J J F F K K W K F V V V F N a @                           ",
"O   O     O X O O X     X # = q w b %.B.x.j.z.F.F.}..X.XM.q.U G N G P ) ) P F F F F F F V C l F F N J O X X                     ",
"X   O     O X $ r O X O + w S ( ' e.f.z.x.j.v.C.:X8X9X6X;Xn.8.) ) 5.6.6.6.6._ J J C V C ! E C H V m m : + O O X X               ",
"    X O   O   # + O   O 1 D d.v.z.v.x.x.j.z.d.oX0X%XZ $.*XXX) 6.5.2.,.1.1.6.' %.~ G.XXG.E E C C F F m a @ $ $ O                 ",
"u 2   O O   X X X O O # w w.].T.k.x.k.k.j.u.q.1X6X6 5 5X,X#X8.6.6.4.4.4.,.6.8.Z.,XwXwXqX*XQ V V F F C F : , , O                 ",
";.| O   X   O   X   X $ f e.K.h.l.k.j.j.x.0.{ 3X<X5 5 -.$.|.' T q.r.y.y.r.6.n.>XwX@X .&.1X|.H F F F C C a O O       X X     X   ",
"& # X   X   X         @ 0 q.k.L.l.j.j.x.s.7.{ >XqXO.- . v  X8.2.,.2.1.3.4.) Z.9X<X; i 5X=X#X' P G H C C l       X   O #     X   ",
"                      + 4 / x.l.l.j.z.x.0.1.' A.3X9X,X&X-Xm.8.6.2.2.1.1.,.6.D.qX@X% 8 =X-.H.@.) ) H l V V     X O   X 3 # O   O ",
"                      O = E a.j.j.x.j.9.<.i.N.6.V.XX;X$XZ.' 5.2.,.1.>.,.,.) Z.7X4Xi % % : |.' 6.5.G l F a     X X   X > O O   X ",
"                        $ A e.x.j.x.9.:.u.p.4.,.2.6.' ) ' 8.6.1.p.p.p.r.,.T %.-XwX<X-.&.#XD.) 6.5.G F V k           X       O   ",
"                        # x { g.x.v.t.,.r.4.1.1.>.6.6.8.8.5.1.1.r.c.c.y.4.1.8.m.#X2X6X2XJ.) 6.1.1.L F k h   +   X     O X     X ",
"                        O 1 D q.t.f.e.T 6.,.1.1.1.2.6.6.5.5.5.1.4.r.0.<.3.1.5.) ' n.m.b.T 6.7.5.6.Y V f 9 + * X X     O X X   O ",
"                        X + 1 v Q ~ ~ / 6.1.1.5.5.1.6.6.5.5.5.1.>.4.3.1.1.5.5.5.5.6.5.6.1.3.y.i.2.T H e # X       O       O   X ",
"  X X         X   X X       O & t c x S ) 6.5.5.5.5.5.5.5.5.5.2.2.1.1.1.5.) ) ) ) 6.5.5.1.3.1.y.i.Y l 1 O         X X   O X X   ",
"  X X X       X X             X O # & d R / ) ) 5.6.6.2.1.1.6.6.6.n.N.e.T n.S.m.) U 6.2.1.1.1.1.7.P h = O           X   X   X   ",
"O     X   O X X               O , & + = e v R W W / ) 2.,.,.,.6.N. X XF.V.D.Z.#.! W U ) ) ) ^ W H h 4 +                         ",
"    # &   X                   O 2 &     # < q y g b R U T 4.t.F. X X}.}.}.A.*.S 0 e z H ^ W n x w 1 +                           ",
"  O < < O O   O X                 O   X   O X O # 1 w b ( a.].{.[.[.{.].'.A.+.e $ = q d x e 1 + O O                             ",
"    O O X O   X X             X X   X X & O O X X O O = v w.!././././.W.R.M.A = O # o...& # O O X                               ",
"X O     O O                   X O   O # t < #     X O O w [ W.U.~.U.P.L.T.w.e + O + u 3   X                                     ",
"  X X   X   # O X                 +     + 2 $   O X X O c M.W.U.U.U.P.L.T.` 1 O X   + O   O   O                                 ",
"X     X X X 3 < O               X O       O   X X   X X c A.E.U.U.U.U.P.Y.~ 1 O O     X O O   X   X   X   X O X                 ",
"O     X     + # X             X X X       X X X O   X O 6 ` !.U.U.U.U.U.R.~ 1 O X       X         O   O   # 3 + X               ",
"+ O O     O   X                 X X X       X + 3 # X O 9 _ !._.).I.U.U.R.#.9 O                 O + X   O 3 ;., X               ",
"..u X X O X X                         X X X X O > O   O e q.Q.I.).)._.~.Y.%.e +                   < r X   # 3 O                 ",
"=.} X X # # O                   X       X X         X = A a.Q.P.(.I.).U.!.V.v #                 X O O O   X X                   ",
"+ + X O & 3 O                 X X X       X O O O X O 6 ! Y.~._.P._.I.U.^.M.d +               X O X O X X     O X               ",
"  X X     +   X X                 + # + O O & , O   O w _ T.U.U.U._.U.`.+XM.w O                     X O X   O                   ",
"X O   O O   X X X       X         O = + X O & ,     + w ( Y.~.U.U.U.U.OX+Xm.q O               X X X   O     X X                 ",
"X     X     X     X     X     X X       X X X X + O O = A ] j.T.W.!.!.].C.Q 1 O   X O     X         O   O O X   X   X     X     ",
"> O   X O X       X   X X       X               + & + O 1 f ~ _ _ T _ U C 9 +     # $ O   X O             X O   O   O   X O X   ",
"t > X     X   X   X O X O   X                     O $ X O @ e w w 9 9 4 = + O O   & 2 +     O O X     X     X       X X X     O ",
"+ O     X X X       $ $     O                 X X X O O X   + O + O   O O X     X O O   X O           O O             O X       ",
"    X X         X   > 3 + X X X O                   X X O         O   O       X X       O X   # #     O O X X     O     X X O   ",
"+ O X     O X   X   O O O       X O             X     X O O   O         X   X       X + X   X , , +         X X X   X   O X O   ",
"      X X X       X O # # O O X               X X X     X X   O     O   O X     X X       X X + # O     X O O   X   O   X     X ",
"  X O X     X O O     , =.,     X             X X X X   X   X     + 3 + O     O X + o     o   X       O X X X   X   O     $     ",
"X     X O X       X X $ X.& O X     X X O X       X O   X   O   X O ,   O X       X o o X o   X X O O X     X X   X X   O r # X ",
"                  X X O # O X       O + 2 O       X X     X X X O O     O     X   + # # o   X X X O O X X         X X   X O O   ",
"X X     X X                     X X X O < + X O       O O   + < #   O   X X O X   X + +     X   X         X O                   ",
"X X     X                         X     #       X     O X   + < # + O       X   X X O X   X X X O O X O     O                   ",
"    X         X                 O + X   O         X         X + $ 3 X X O     O O O X X X O O     O     X O                     ",
"X X X X       O X             X O # O X O X       O X   O O     + 3   O O     O X     X   X X X u } X   O                       ",
"X X                               O X             O X X X X   X   X X       X   X     X   X   O } X.O O O   X X                 ",
"O       O + O                     O X   O   O   X O X   X     O X   O X X   O X X   O O   O O   + # X   X O   O X               ",
"O     O $ $ # O                         O   X   X X     O O X X O O     X     O     O O   X O X X O   X O   O                   "
};
