/* XPM */
static char *_5d717a6626441b3fe999b56fd5df265j2uw8nLyy4Mj6lIx[] = {
/* columns rows colors chars-per-pixel */
"64 64 176 2 ",
"   c #000305",
".  c #000405",
"X  c #000505",
"o  c #000406",
"O  c #000506",
"+  c #000507",
"@  c #000606",
"#  c #000607",
"$  c #000707",
"%  c #000509",
"&  c #000608",
"*  c #000708",
"=  c #000609",
"-  c #000709",
";  c #000809",
":  c #000909",
">  c #00080A",
",  c #00090A",
"<  c #00090B",
"1  c #000A0A",
"2  c #000A0B",
"3  c #01090C",
"4  c #03080C",
"5  c #000A0C",
"6  c #000B0C",
"7  c #000B0D",
"8  c #010B0D",
"9  c #020A0D",
"0  c #030B0E",
"q  c #050A0E",
"w  c #060B0F",
"e  c #000C0C",
"r  c #000C0D",
"t  c #000D0D",
"y  c #010C0E",
"u  c #000D0E",
"i  c #020C0E",
"p  c #020D0F",
"a  c #030D0F",
"s  c #000E0E",
"d  c #000E0F",
"f  c #000F0F",
"g  c #040C0F",
"h  c #010F10",
"j  c #030E10",
"k  c #050D10",
"l  c #070C10",
"z  c #040E10",
"x  c #040F11",
"c  c #050F11",
"v  c #070F12",
"b  c #080D11",
"n  c #001010",
"m  c #011111",
"M  c #021011",
"N  c #031112",
"B  c #021212",
"V  c #031313",
"C  c #051012",
"Z  c #061012",
"A  c #061113",
"S  c #041213",
"D  c #051314",
"F  c #071214",
"G  c #041414",
"H  c #061415",
"J  c #071516",
"K  c #061616",
"L  c #071717",
"P  c #081013",
"I  c #081214",
"U  c #081315",
"Y  c #0A1215",
"T  c #0B1316",
"R  c #0C1115",
"E  c #091416",
"W  c #0A1416",
"Q  c #0A1517",
"!  c #081617",
"~  c #091718",
"^  c #0B1618",
"/  c #0C1719",
"(  c #091919",
")  c #0A1819",
"_  c #0B191A",
"`  c #0A1A1A",
"'  c #0D181A",
"]  c #0E191B",
"[  c #0C1A1B",
"{  c #0D1B1C",
"}  c #0F1A1C",
"|  c #0E1C1D",
" . c #0F1D1E",
".. c #11191C",
"X. c #101B1D",
"o. c #121A1D",
"O. c #111C1E",
"+. c #121D1F",
"@. c #101E1F",
"#. c #111F20",
"$. c #131E20",
"%. c #141F21",
"&. c #112121",
"*. c #122021",
"=. c #132122",
"-. c #132323",
";. c #152022",
":. c #142223",
">. c #172224",
",. c #162425",
"<. c #182325",
"1. c #192426",
"2. c #1A2527",
"3. c #182627",
"4. c #192728",
"5. c #1B2628",
"6. c #1A2829",
"7. c #1B292A",
"8. c #1D282A",
"9. c #1E292B",
"0. c #1C2A2B",
"q. c #1D2B2C",
"w. c #1E2C2D",
"e. c #1F2D2E",
"r. c #1F2F2F",
"t. c #212C2E",
"y. c #222D2F",
"u. c #202E2F",
"i. c #232E30",
"p. c #223031",
"a. c #243233",
"s. c #243434",
"d. c #273536",
"f. c #283335",
"g. c #2A3537",
"h. c #283637",
"j. c #2B3638",
"k. c #2C3739",
"l. c #293939",
"z. c #2A3839",
"x. c #2A3A3A",
"c. c #2D383A",
"v. c #2E393B",
"b. c #2D3B3C",
"n. c #303B3D",
"m. c #303E3F",
"M. c #333E40",
"N. c #324041",
"B. c #334142",
"V. c #364143",
"C. c #354344",
"Z. c #374244",
"A. c #374546",
"S. c #3A4547",
"D. c #384647",
"F. c #3A4849",
"G. c #445253",
"H. c #495456",
"J. c #4B5658",
"K. c #4A5859",
"L. c #4B595A",
"P. c #525D5F",
"I. c #526061",
"U. c #536162",
"Y. c #5D686A",
"T. c #646F71",
"R. c #637172",
"E. c #647273",
"W. c #697778",
"Q. c #6C7779",
"!. c #6F7D7E",
"~. c #7F8A8C",
"^. c #7F8D8E",
"/. c #818F90",
"(. c #A1AFB0",
"). c #A4AFB1",
/* pixels */
"C + x p F < < C p p p x 5 & %.+ < j ;.z.p N p 5 p p p p p p p p N 5 p N N j N p p p j N p < p N p p p p p p p p p p p p p p p p ",
"5 C U 5 5 ' C < j x 5 p < 5 p 5 N < p _ + p N p p p p p p p p p j p p j p p p p j p p p p p p j p p p p p p p p p p p p p p p p ",
"p x & & ^ c.<.5 p j 5 x x Q & ^ C < < p 5 j N p p p p p p p p p p j N p 5 p j j N N p p p j j p p p p p p p p p p p p p p p p p ",
"< p x p 5 / x p p x p x p p + < p p F j H p p p p p p p p p p p 5 N j p p N j j p j j p p j j p p p p p p p p p p p p p p p p p ",
"p 5 U 5 5 & < j 5 p p x p p <.C j N H < N < p N p p p p p p p p p N p p N N p p < p N j p p p p p p p p p p p p p p p p p p p p ",
"F < j + U ^ Q j p p 5 p j C g.+.p p p + N p j p p p p p p p p p p C p 5 N p < N j p p j j p p j p p p p p p p p p p p p p p p p ",
"p x ^ 5 & < < 5 C C 5 5 & & Q 5 p p j p N N N < p p p p p p p p p C p p N 5 p *._ N < p N p p N p p p p p p p p p p p p p p p p ",
"j 5 5 C p U < C < p 5 C x U + x p N N j < p N j p p p p p p p p p N p p N p H a.,.N & p N p p N p p p p p p p p p p p p p p p p ",
"5 F < j j C 5 p j 5 F p < x p j j N j p p N j 5 p N F j p j N j N N j p p p p j < C S.p C < p j p p p p p p p p p p p p p p p p ",
"5 Q 5 p C < + Q x 5 5 5 x C p 5 p p p N j 5 p H H _ _ N p p p p N < < N Q C p 5 p 5 2.< C C p p p p p p p p p p p p p p p p p p ",
"p 5 j 5 < Q ' + 5 C p j j & 5 U p p j j p < p j N H H N p p p p Z.2.p < p p p N N < < 5 j H p p p p p p p p p p p p p p p p p p ",
"x j C j F 5 < C C C < C } C p 5 p C j < 5 N N < < p p p p p j j N < & H $. .H p j p & N p p p N p p p p p p p p p p p p p p p p ",
"x + 5 < + p 5 p 5 p x ' } x 5 p p j p p p N N p p j N p p p j p F N 5 < < p p < p N j j p < N p p p p p p p p p p p p p p p p p ",
"j j C Q C U p y.C & j p < 5 p C p p p N p < < j j j j j j j j p < N N p p N C p p p N 5 N 5 N 5 p p p p p p p p p p p p p p p p ",
"5 Q   5 C 5 ;.).;.+ C p & ' p & p j j p N H N < p p p p j j j j 5 p j p p p p p p 5 j 5 N p N p p p p p p p p p p p p p p p p p ",
"j 5 y.V.  U p C 5 p V.f.5 p & C 5 H N + ^ a.7.< N j p j j p p p N p p j N p p N N 5 N N p p < H p p p p p p p p p p p p p p p p ",
"N & H 5 C j 5 p p < W.L.& Q < N j 5 5 < F / j p j x 5 x 5 C + x j j p p p p j j p p p p p p p p p p p 5 p N j < p p p p p p p p ",
"N p F p N 5 j N H & < < p N < F < j j F & Q 5 C 5 p p F x C C x p p p p p p p p p p p p p p p p N p p C N p p N p p p p p p p p ",
"p p j p N 5 N 5 < H j H H < N p 5 Q & C p Z.5.+ j x p p 5 & U + p p p p p p p p p p p p p p p p p p p p p p p p p p p p p p p p ",
"N p N 5 p N p p 5 p p + p F < C + p X.i.& x & F p j 5 p x x y.' p p p p p p p p p p p p p p p p j p p j j j p p p p p p p p p p ",
"N < H p < H p ' F.< N H + N N < ' p ' 9.Q C < x p j 5 p x x y.' p p j j j j p p p p p p p p p p j < < j N N j N p p p p p p p p ",
"< + j N p N < ' j N p p H p & ^ + + C & + x U < j x p p 5 & U + p j j j j j j p p p p p p p p p & _ _ < p *.*.p p p p p p p p p ",
"z.2.& C N p p p p F H j < p N < ' < x j C < < C 5 p p F x C C x p p p p p p p p p p p p p p p p 5 7.7.p p 7.7.p p p p p p p p p ",
"/.U.& p N < _ < C + j j p N < N p 5 j 5 C C 5 j j x 5 x 5 C + x p p p p p p p p p p p p p p p p N _  .N < p p < p p p p p p p p ",
"p p p p p p p p p p p p p p p p p < < & p x 5 p p x j 5 5 p p 5 j 5 F 7.w.H + j p p j N j p p N p p p p p p p p p 5 N ^ + p N 5 ",
"p p p p p p p p p p p p p p p p x < n.k.< Q & x x p p x x j j x p N  .a.a._ < N N p < p p p j N p p p p p p p p H < < d._ F + H ",
"p p p p p p p p p p p p p p p p < 5 Y.T.< x < 5 p 5 5 x C 5 5 x N j p j j < N ,. .F p p j j p p p p p p p p p p N p < 5.j H < N ",
"p p p p p p p p p p p p p p p p ' j + < + / < p p 5 5 p p 5 p j p p p 5 5 5 F *. .H p p j j p p p p p p p p p p 5 p N < + p C < ",
"p p p p p p p p p p p p p p p p < & p U 5 x F j C Q F p 5 C U x 5 N N N N j p j j p p p p p p j p p p p p p p p j < p N N 5 p j ",
"p p p p p p p p p p p p p p p p p C Q < x p   x C / Q 5 5 U Q x j N 5 & 5 p p p 5 p p j p p p N p p p p p p p p N p < ^ j N < N ",
"p p p p p p p p p p p p p p p p } F 5 C < C Q x p C C p p C C p 5 j j N H N p j N j N N j p p p p p p p p p p p 5 C < 5 & N p N ",
"p p p p p p p p p p p p p p p p 2.M.  C F & p 5 5 p p j x j p p p N p p p p < p p p p p p p p N p p p p p p p p p p C < H p N p ",
"< C N p j 5 < C p p p p p p p p & j p 5 5 p p F 5 C p < Q & x F p p p p p p p p < H p < N p p N p p p p p p p p p p p p p p p p ",
"F < < p 5 Q F j p p p p p p p p 2.%.j j C Q &   C C 5 5 Q C x p p p p p p p p p N p N p j N 5 p p p p p p p p p p p p p p p p p ",
"p & } $.+ p < & p p p p p p p p j.+.5 & U 5 j / + p C C & & 5 C p p p p p p p p p + j N p C p j p p p p p p p p p p p p p p p p ",
"p U y.i.j U 5 Q p p p p p p p p   U 5 C & Q < < C x & x C j U p p p p p p p p p p  .+ < N & j p p p p p p p p p p p p p p p p p ",
"& < p j 5 F & x p p p p p p p p F & C < $.5 C x j x & 5 C & C p p p p p p p p p p + !.U.+ H < N p p p p p p p p p p p p p p p p ",
"C F < < Q C 5 5 p p p p p p p p Q   U / S.>.X.<   x F p j F & C p p p p p p p p F N B.w.+ N p p p p p p p p p p p p p p p p p p ",
"5 C x p C   ^ x p p p p p p p p + }   p & c.+.< Q j x 5 2.P.j p p p p p p p p p j < C p p F p j p p p p p p p p p p p p p p p p ",
"p 5 p p C < c.y.p p p p p p p p j C p p p 5 < C x & x & 9.~.p 5 p p p p p p p p N < p p F N & N p p p p p p p p p p p p p p p p ",
"U 5 p j p 5 C Q p p p p p p p p x p 5 p p x j p C & j U & + j p p p p p p p p p p p p p p p p p < H p F < _ *.H p p p p p p p p ",
"& & U p < Q & j p p p p p p p p p j x p 5 5 j C c.X.p j p F U < p p p p p p p p p p p p p p p p N H + p N ;.(.C p p p p p p p p ",
"J.M.+ j F j p p p p p p p p p p 5 p p j j j x C <.C < p 5 p j & p p p p p p p p p p p p p p p p + q.A.+ 5 F 2.p p p p p p p p p ",
"Q.H.  p ^ ^ C 5 p p p p p p p p j 5 5 p x x 5 & & & j U p 5 x C p p p p p p p p p p p p p p p p p p 5 F < j p < p p p p p p p p ",
"+ < p C +.n.p p p p p p p p p p C j p 5 5 p j x C j j x j j x j p p p p p p p p p p p p p p p p F p F p N p < _ p p p p p p p p ",
"p C C +   ^   C p p p p p p p p p x C p 5 C +.9.j p 5 5 p p p 5 p p p p p p p p p p p p p p p p p 5 j C j p H + p p p p p p p p ",
"x F + ^ Q < C x p p p p p p p p 5 p x j p F $.9.+ p C C C x j C p p p p p p p p p p p p p p p p N N p C + p p N p p p p p p p p ",
"5 5 p p 5 5 x 5 p p p p p p p p x p 5 5 p j 5 < j C p < p p 5 5 p p p p p p p p p p p p p p p p p p C < F N p p p p p p p p p p ",
"+.N < N H p 5 p < N < N p p p p p p p p p p p p p 5 j 5 H 5 m.' p p H < p p p p p H *.p N N N p p 5 p p p j N p C 5 C & N N j p ",
"B.2.p < p j p j p p j p H < p p p p p p p p p p p p N p N < q.j p p N p N j C F < *.d.H p p N H N p p j 5 p j p p < j N N p p F ",
"C p 5 p N N p p j 5 $. .+ p ^ < p p p p p p p p j p N p j < H < N p + 5 N N p < N N C + j H 5 + p < p C N p p p < p p N p < p p ",
"& p j j p p p p N + ;.b.N p p N p p p p p p p p p p j j N p < p p F j H p & p N N + < p U p 5 _ ^ p 5 N N p p p p C p < j j H & ",
"_ H j 5 p N j < C p j + _ p p < p p p p p p p p p p p p N C < C p p < p N p j p p < C Q C < p 9.7.Q 5 p p p N N j p N & F p H p ",
"& < p p N N p p & j j $.+ p H N p p p p p p p p j p p p j N < N N < N < N N p & x j 5 < < U 5 U } j 5 p j N N p N & C 5 N < < N ",
"p N C N < < p H H p 5 F ^._ + N p p p p p p p p j j j p j p N p p H z.H N & 5 ' 5 Q U g & P 5 x < < p N N N j < N < N p < $.< p ",
"N p p N N N p p 5 N p C E.H N p p p p p p p p p p j N p N 5 H 5 N < w.+ F N < 5 p x g P q R & x x N N p < < N N p N N p 5 A._ p ",
"p p p p p p p p p p p p p p p p p p N N d.j p 5 < N j < p N p < N N + p C 5 5 x 5 U X.X.b q b x p N C j N p 5 p p p p p p p p p ",
"N j p p j j p p p p p p p p p p N N N j y.C N N p 5 p C N 5 H w._ + H p N N F p 5 x U U 5 5 x 5 x + p < p N C p p p p p p p p p ",
"p p p p j p p 5 p p p p p p p p < p < + _ < < p j 5 p C N & F y._ N N < 5 5 j < j j C x 5 p x p C F N F p + H 5 p p p p p p p p ",
"p p p p p p p p p p p p p p p p N _ p 5 N p p p p N p 5 p p p N _ z.+ N N p p C F x x x p C C p + & 5 p p H + j p p p p p p p p ",
"p j N p p p p N p p p p p p p p F  .C N N j p p < N j < N H p & F g.+ N C p p N N p p p p N j < B.G.+ p C p j p p p p p p p p p ",
"j p p p p p p p p p p p p p p p p H p p p 5 p < p N j p N p p N p < N 5 p p j < j p p j p j p & L.E.+ H N + C j p p p p p p p p ",
"N p < p C H N 5 p p p p p p p p p N j p N p N p j N p p j < < N N + ^ p N p F j N p N N p N N p 5 j p 5 p } + H p p p p p p p p ",
"N p < N  .*._ j p p p p p p p p p p p p N < N 5 p N p 5 N N j p j H < p N & 5 N p p N N p p N p j H & N N < ^ 5 p p p p p p p p "
};
