/* XPM */
static char *_a46f8bd507d4cd08281fd85fd3d1926LKjkpxI3cLWjllgd[] = {
/* columns rows colors chars-per-pixel */
"64 64 245 2 ",
"   c #000D0E",
".  c #020F10",
"X  c #080E12",
"o  c #041113",
"O  c #091416",
"+  c #071718",
"@  c #0A1618",
"#  c #0D1A1B",
"$  c #101C1E",
"%  c #0E1D20",
"&  c #131E21",
"*  c #301434",
"=  c #152224",
"-  c #192426",
";  c #182A27",
":  c #1B262A",
">  c #1C2A2B",
",  c #212D2E",
"<  c #232E32",
"1  c #253233",
"2  c #2B353A",
"3  c #2A3839",
"4  c #31373D",
"5  c #224238",
"6  c #221945",
"7  c #372649",
"8  c #2B3840",
"9  c #333C43",
"0  c #343847",
"q  c #2D2758",
"w  c #3D2959",
"e  c #383657",
"r  c #3D345C",
"t  c #162865",
"y  c #19376B",
"u  c #1A3A7D",
"i  c #3C3463",
"p  c #3A3B65",
"a  c #313769",
"s  c #3A3C6B",
"d  c #443049",
"f  c #432B5D",
"g  c #482A5E",
"h  c #47385B",
"j  c #462961",
"k  c #4A2D63",
"l  c #433463",
"z  c #423A64",
"x  c #433C6A",
"c  c #4A3868",
"v  c #54386C",
"b  c #4B3F71",
"n  c #553A73",
"m  c #633E75",
"M  c #3A4549",
"N  c #2A504F",
"B  c #39544B",
"V  c #3C4555",
"C  c #317959",
"Z  c #2D4565",
"A  c #39456B",
"S  c #3C4973",
"D  c #2C5071",
"F  c #395777",
"G  c #396377",
"H  c #414D4E",
"J  c #424B51",
"K  c #474758",
"L  c #475358",
"P  c #4B5458",
"I  c #50615F",
"U  c #43426B",
"Y  c #4C436D",
"T  c #494968",
"R  c #55466C",
"E  c #495567",
"W  c #565766",
"Q  c #434572",
"!  c #474877",
"~  c #4A4B74",
"^  c #584977",
"/  c #4B527B",
"(  c #48557B",
")  c #575778",
"_  c #6A447D",
"`  c #72487D",
"'  c #655778",
"]  c #4A6C6C",
"[  c #586269",
"{  c #58746A",
"}  c #586376",
"|  c #567876",
" . c #6A6B76",
".. c #676978",
"X. c #69777B",
"o. c #80597D",
"O. c #278261",
"+. c #35A578",
"@. c #4E8E77",
"#. c #6A8577",
"$. c #113C82",
"%. c #174888",
"&. c #185693",
"*. c #3C4A82",
"=. c #2A5995",
"-. c #386795",
";. c #276AAA",
":. c #3577B4",
">. c #317AB5",
",. c #347BBD",
"<. c #584C85",
"1. c #4A5882",
"2. c #545484",
"3. c #535C85",
"4. c #54548A",
"5. c #585989",
"6. c #5C5E8B",
"7. c #644E88",
"8. c #655888",
"9. c #785A84",
"0. c #6B5A95",
"q. c #705C93",
"w. c #4D6889",
"e. c #586587",
"r. c #586D91",
"t. c #597297",
"y. c #666788",
"u. c #67758B",
"i. c #77728B",
"p. c #676894",
"a. c #76699B",
"s. c #6A7397",
"d. c #7B789A",
"f. c #577BA6",
"g. c #4D7FB0",
"h. c #7369A1",
"j. c #6B7CA8",
"k. c #7879A5",
"l. c #845D8F",
"z. c #896A97",
"x. c #867898",
"c. c #907FAA",
"v. c #3180BC",
"b. c #5A8F96",
"n. c #788A87",
"m. c #729988",
"M. c #77849A",
"N. c #4FBB89",
"B. c #79A88F",
"V. c #5A86A9",
"C. c #4587BD",
"Z. c #558CB9",
"A. c #7A87A9",
"S. c #718EB3",
"D. c #7988B4",
"F. c #65ABB2",
"G. c #7AABBB",
"H. c #49C592",
"J. c #69D499",
"K. c #58D4A1",
"L. c #69D9A7",
"P. c #76E2AF",
"I. c #348EC4",
"U. c #4C94C7",
"Y. c #4AA5D8",
"T. c #74B2CC",
"R. c #60BBEB",
"E. c #7DC8CF",
"W. c #73CAF2",
"Q. c #89889B",
"!. c #859994",
"~. c #82A68D",
"^. c #86A595",
"/. c #8887A7",
"(. c #968BA7",
"). c #8B95A9",
"_. c #9998AB",
"`. c #8A89B3",
"'. c #988AB9",
"]. c #8794B5",
"[. c #9797B4",
"{. c #A38DAB",
"}. c #A999B5",
"|. c #B798BA",
" X c #90B8A5",
".X c #89A6B8",
"XX c #A7A4BA",
"oX c #B6A1BD",
"OX c #92D1AF",
"+X c #A6CEB5",
"@X c #8EEFB3",
"#X c #85EBB8",
"$X c #A9EBBB",
"%X c #C7E0BA",
"&X c #8898C4",
"*X c #A99AC5",
"=X c #8FA6C4",
"-X c #9BA8C4",
";X c #84BBC8",
":X c #98B4C9",
">X c #9ABAD6",
",X c #A2ABC9",
"<X c #B5A7C6",
"1X c #AAB6CD",
"2X c #B1B7CB",
"3X c #A4B7D2",
"4X c #B7B9D5",
"5X c #C5AAC8",
"6X c #C4B1CB",
"7X c #8BCAD3",
"8X c #B6C4DA",
"9X c #B5D6D2",
"0X c #97F1C5",
"qX c #97F0C7",
"wX c #A7EBCA",
"eX c #B0EBC7",
"rX c #A9F5CA",
"tX c #B5F5CC",
"yX c #B9F7CA",
"uX c #ACEAD1",
"iX c #BBE5D6",
"pX c #B4EBD3",
"aX c #BBEBD5",
"sX c #B8F5D3",
"dX c #8CD3EC",
"fX c #BAC9E4",
"gX c #ADDAEF",
"hX c #A5E2ED",
"jX c #C1C8DF",
"kX c #CCFBCA",
"lX c #D2F9CA",
"zX c #C6E6DA",
"xX c #C4ECDB",
"cX c #CAEBDB",
"vX c #D0EDDE",
"bX c #C7F7D4",
"nX c #C4F3D9",
"mX c #CCF4DA",
"MX c #D3FAD4",
"NX c #D3F6DA",
"BX c #D8F8D9",
"VX c #E1F9D2",
"CX c #C8D2E6",
"ZX c #D4EBE1",
"AX c #D0EEF2",
/* pixels */
"    .   .             .     O     . & : o .                     .     o . . .       . .       .                                 ",
"  . .   . @ o     .                 . O     .                         .                                                         ",
"  .     O : $         . . .   o o           .                     . .         . . .                                             ",
"    .   . @ o     .   .             o . o                         . .     . .       .                                           ",
"    .                 .   o $ O . o o   .     .                   .     . .         . .                                         ",
".       . o o .           O - # .       .                         o     .     o o       .                                       ",
"  . o           . .         O .         . o .               o o o o     .   o # # o     .     .                                 ",
"      .   .           . . .       . o       .       . @ > 9 L E E M 1 & +   + = $ o o   .     .                                 ",
"  .     . .         .     .       . .     . .   . # 3 [ u.V.V.f.f.t.r.} M : o o o @ : + .                                       ",
"  .     .     . .       . .           .       o > [ M.V.V.U.Y.U.U.:.=.D ( } 9 @   o $ o o o                                     ",
"          o o     .   . .     .               > u.S.Z.T.AXAXdXW.W.R.U.%.y i ' J $       . o                                     ",
".   .           . .   o @ o       o .     o : X.j.Z.dXhXhXhXW.R.Y.I.v.;.%.q 7 } M O           .                                 ",
"              . .   . O @ .       .       # [ t.U.hXAXAXdXY.U.v.>.,.,.;.%.a 7 T ) 2 o                                           ",
"    . o . . # < #     .       .       . . 4 u.-.W.gXAX>XC.,.>.,.,.,.;.%.%.t 6 h ) P &   .   .                                   ",
"  o . o . . > W >   O o   o       . .   $ } ( :.W.dXdXC.,.,.>.>.;.&.%.%.$.t * * R ) 3 . .                                       ",
"  . = : o . O = o O 3 < o         o     2  .q =.:.Z.g.;.=.&.&.%.$.u u u t 6 * * d W J O       .                                 ",
".   O + o .       # M 9 O o   . .     . M W 7 a *.1.1.1.( ( F ( 1.( S s s r d d 7 h P =                   .                     ",
".   o   .     . .   # @ o o   .       -  .Q.(.XX[.(.,X[.x.].[.x.p.k.a.8.2.) ' R ^ ^ R 8 +       .     . .     .                 ",
"    .             .   . o         . O H 2Xx./.jXz.8.3Xc.R /.].7.^ j.a.v Q v m l b n k h &                                       ",
".   .     . . o o .       o o @ & > M X..Xi.d.].a.a.A.d.s.k.k.p.a.s.y.) ) ^ n ! b c b z 0 : - & O o                             ",
"    o     o o # : o o # - 4 L ..M.).[.-X,X:X-X3X>X3X1X3X3X3X,X=X&X&XD.S.j.t.t.r.6.3.2.2.~ U U U V 0 < = @ o o .                 ",
".     .       O & , J X.Q.[.-X1X1X4XjXfX4X8XCXjX8XfXfX4X4XfX8X,X-X:X:X].&XG.S.k.A.j.8./ Q s s s Q ~ ~ E V 8 > O                 ",
"4 : . .     # 2  .Q.).8X2Xd.-X4X(.i.CX<X9.XXCX{.9.fX4Xx.9.fX-Xz.8.>X].l.q.=Xk.9.p.D.q.^ 2.Q ^ k x b n b ~ ~ E 9 = o             ",
"[ M O   + 1 W  .2X(.).fX/.x.jX2Xo.(.CXx.9.6X4X9.z.fX-X` a.fX'._ 7.-X`._ m ].k.` 7.D.0.n 0.6.m v / ^ v j c c c Y K 2 # o         ",
"= # o # d x.{.|.5X|.5X5X|.|.6X6XoX6X6X<X<X6X<X*X<X2X<X}.*X*X*X`.`.'.c.d.k.k.k.a.a.h.a.0.h.0.<.7.7.n f k k f f j g Y h < o       ",
"    - W (.|.|.5X}.XXoXoX[.[.oXoXXX}.}.}._._._.(.].(.`././.Q.d.d.k.s.s.p.p.p.p.p.0.8.6.6.8.8.4.5.7.<.z k k w r l j w k h 9 @   o ",
"  o 9 d.d.y.y.) ) T T U p z Y U T Y r h z T e i z ~ ~ i z x ~ x U U p i r z z r f r z r r l z i z z f f l r z l l r c ^ W =   . ",
"  . - E e.3./ i i ~ u.A.~ Q r.A.y.).e.! 5.].p./ 1.A.A./ <.p.=Xy.A.]./ S ) d.e.Y Y u.e.U T e.( 1.1.x c ( Q i i w h ) u. .4 O .   ",
"    . % 2 E e.6.2.1.1.:X.X/ e.;XF.G.T.-.w.G.;X1.5.A.7Xw.6.t.7Xb..X;X1./ b.7Xt.! t.E.s.! V.F.b.G.w.S r.T.3.v v ' i. .J > +     . ",
"          O > 0 ~ 2.3.w.w.s ~ F G Z F p b A D s Y U D Z Y A Z a Z A x z Z F Q i Z F A i S F S ( ! x / w.} y...P 2 $ . o .     o ",
"              o @ : 2 V E } } ) / / ) ~ Q A p x U x l z x z l k l l k z l x A z z x x Y ) ) 5.y.u.u...W M < & o   .       .   . ",
"              .       o @ = < 4 J W } ) y.2./ / / 3.e.5.p.5.6.5.1.Q x s s i e w f j Y ) [ E V M 1 : $ + .         . .   . . .   ",
"  . .         .                 O # # : W s.D.D.`.`.].].].A.A.k.s.2.Q S Q x l f v ^ ' 4 # o . o                                 ",
".     .   o .                 o & # . . # 2 L W i.M.u.e.) ) R R c z i x R 8.y.T K 0 : o   .                                     ",
"    # #                       o - $     . . o # - M ..E E ] | | | G Z e h K < = O       . .                                     ",
"  o = = o .   .                 . o       .     . & M ] @.m.B.~.B.b.@.] J : o     + # O .                                       ",
"    o o . o                     .   . o # o .     . : C N.OX$X%X$XJ.+.O.5 o       # H M o .                                     ",
". .     o .                   . .   . # , - #     . 3 +.J.@XkXVXkX@XH.+.N o     . @ 3 > . .                                     ",
"  . .   .   @ O .                 o     @ - #   . o B N.P.$XkXBXlX@XK.H.C @     .   + o   o                                     ",
"      . . . - = o                 .       o . . . o ] L.#XtXMXBXlX$XL.P.@.;     .       o .               . . .                 ",
".         . O @ .               .             . o , B.P.0XyXMXBXMXrXP.#XOXL o                     o   .   # > @                 ",
"O o .     .                         .       . O > #.eX#XrXbXMXBXMXyX#X#X$Xm.$                   . O o   o > I =                 ",
"H 2 o   o o                             . . . o 1  XsX0XtXbXMXBXMXyX0X0XrX+X1                     = : o   # > +                 ",
"I 9 o   @ # o                           . .     1 +XsXrXsXmXNXBXNXbXrX0XyX$XB                     o + o                         ",
"$ O . . # - o                   . .       . o . H $XyXrXnXNXNXNXNXbXrX0XyXeX{                   o   . . .     o                 ",
"  .       O                       . .     o # = #.yXyXtXnXNXNXNXNXbXtX0XtXtX#.+                     . o     o                   ",
".     . .   . .                     .     o # , ~.tXtXaXnXmXNXNXmXnXtXwXrXrX~.=                       .     .                   ",
".     . .                                 .   ,  XsXsXaXnXmXmXmXmXnXpXwXwXrXOX1   . o               .   . .                     ",
"& o     o         .                           B +XaXaXaXxXcXmXnXnXaXpXuXpXwXOXB   + # o     .             . .   .   .   . .     ",
"1 &       .         o . .                   o { wXxXaXaXzXcXnXnXaXaXpXpXxXuXwX| + # = +     o o .                     . .     o ",
"@ o     . .         # #     o               # m.uXcXcXaXcXvXxXaXnXaXpXaXcXaXwXB.= o o     o           o .             .         ",
"                    # = +   . .             :  XpXZXZXiXcXvXxXaXxXcXiXcXcXiXuX X1       o .   O O     . .         .       . o   ",
"o o .     .         o o o                   M +XiXvXZXzXcXZXzXiXaXxXpXiXcXiXaX+XH     o .   . & = +         . . .       . . o   ",
"          .         o @ # o .               L +X9XcXcXzXcXZXcXiXiXiX9XiXvX9XiX9XX.@       . . O @ o     . . .       .         . ",
"  . o .       o o     = L =               . 4 { X.^.^.n.n.n.n.n.n.n.n.n.!.n.n.n.I $ .     .   .       . . . .       .   . # .   ",
".     . .         .   & M =           . o . o o o $ # O + o @ o + @ = @ @ O o O o . X X X X   . . . o             . .   o : @ . ",
"                      o @ o         . + = +                 . . o       .         o @ @ .     . . . o .                 . + o   ",
".                                     o = + . .       o .   + = @   .   . . .     . O O         .           o                   ",
"                                        +             o .   + = # + o             . . .     .       . .     .                   ",
"                                o +     .         .         . o # = o . .     . . . . .   . .   o o     . .                     ",
"    .         .                 o @ o . .         .     . o     O = . . o     . .         .   o 2 4 o   o                       ",
".                               . o .             . .   .         . .                     .   o M M O . .     .                 ",
".       o o o                     . .   .   .     .           o     o .     . .     . .   . .   @ # .   . o   .                 ",
"o     o # # @ .                         .   .     .     . o . . . o           .     o .     o     .     .   o                   "
};
