/* XPM */
static char *_32f75c52d894114fb7fb7fa296536a9G2BMycKuCBhRc2Ho[] = {
/* columns rows colors chars-per-pixel */
"64 64 244 2 ",
"   c #000003",
".  c #00000A",
"X  c #000D0F",
"o  c #060716",
"O  c #020F10",
"+  c #041113",
"@  c #091416",
"#  c #0A1618",
"$  c #0D1A1B",
"%  c #111C1E",
"&  c #1B191C",
"*  c #020223",
"=  c #04042B",
"-  c #121E21",
";  c #191825",
":  c #10152D",
">  c #070638",
",  c #211F2A",
"<  c #152224",
"1  c #192325",
"2  c #1B262A",
"3  c #1D2A2B",
"4  c #24292A",
"5  c #21302D",
"6  c #232E32",
"7  c #2D2B33",
"8  c #263434",
"9  c #2B3739",
"0  c #2C353B",
"q  c #36373C",
"w  c #601A1C",
"e  c #4A2C2D",
"r  c #0F0F4A",
"t  c #14134D",
"y  c #191A59",
"u  c #19284F",
"i  c #272649",
"p  c #34284A",
"a  c #2B3541",
"s  c #343745",
"d  c #323C42",
"f  c #2A2656",
"g  c #3D275A",
"h  c #3A335B",
"j  c #1A2D68",
"k  c #272A69",
"l  c #2F306B",
"z  c #3C3765",
"x  c #373777",
"c  c #4A324D",
"v  c #453A4B",
"b  c #452B5F",
"n  c #45395B",
"m  c #492B63",
"M  c #433A64",
"N  c #473868",
"B  c #56376C",
"V  c #483F70",
"C  c #543B73",
"Z  c #3A4549",
"A  c #3C534D",
"S  c #3D4454",
"D  c #3A446C",
"F  c #2D4C7B",
"G  c #364877",
"H  c #37567B",
"J  c #34617F",
"K  c #454649",
"L  c #4D494E",
"P  c #465249",
"I  c #53544C",
"U  c #444C52",
"Y  c #484B57",
"T  c #554D5C",
"R  c #485458",
"E  c #555256",
"W  c #565A5A",
"Q  c #744E5B",
"!  c #54615A",
"~  c #707451",
"^  c #474669",
"/  c #564667",
"(  c #4A5266",
")  c #595766",
"_  c #464876",
"`  c #4B4B74",
"'  c #584975",
"]  c #4A527B",
"[  c #4A587A",
"{  c #585877",
"}  c #635B64",
"|  c #6C5872",
" . c #576468",
".. c #596476",
"X. c #587272",
"o. c #676669",
"O. c #727469",
"+. c #686677",
"@. c #716C72",
"#. c #786F7C",
"$. c #68777B",
"%. c #787776",
"&. c #7A757B",
"*. c #F0294B",
"=. c #9C6A7F",
"-. c #D96D7D",
";. c #6B8B77",
":. c #798577",
">. c #80887F",
",. c #383983",
"<. c #194987",
"1. c #395680",
"2. c #2A5A94",
"3. c #3F6A92",
"4. c #2D75B3",
"5. c #484887",
"6. c #565985",
"7. c #515589",
"8. c #494998",
"9. c #655686",
"0. c #586687",
"q. c #566B8C",
"w. c #4A6998",
"e. c #577699",
"r. c #666988",
"t. c #766C84",
"y. c #667489",
"u. c #7A7686",
"i. c #686E98",
"p. c #797799",
"a. c #5556A8",
"s. c #5554AC",
"d. c #605EBB",
"f. c #4F6EAA",
"g. c #5679AB",
"h. c #696FAC",
"j. c #6866C7",
"k. c #7270CD",
"l. c #7774D8",
"z. c #7F7DE1",
"x. c #847C84",
"c. c #877799",
"v. c #8F7EA1",
"b. c #817DE0",
"n. c #3784BE",
"m. c #778A86",
"M. c #748A91",
"N. c #679497",
"B. c #5488B3",
"V. c #7887A7",
"C. c #6985B0",
"Z. c #70AAB7",
"A. c #358FC5",
"S. c #4E95C7",
"D. c #6B86C7",
"F. c #7096C9",
"G. c #4BA6D9",
"H. c #75B4D0",
"J. c #60BAE9",
"K. c #72C9F1",
"L. c #89848A",
"P. c #898888",
"I. c #8A8997",
"U. c #918B93",
"Y. c #968E98",
"T. c #8B9590",
"R. c #9A949C",
"E. c #85A594",
"W. c #93AE99",
"Q. c #ACA596",
"!. c #8888A2",
"~. c #9A88A5",
"^. c #8B95A8",
"/. c #9997A7",
"(. c #9899B3",
"). c #A387A6",
"_. c #A39BA7",
"`. c #A79CB7",
"'. c #B59ABB",
"]. c #8BB9A6",
"[. c #8AA3B7",
"{. c #A4A7A9",
"}. c #ABA4AC",
"|. c #A8B0A3",
" X c #A7A5B4",
".X c #B4ACB5",
"XX c #B6A3BD",
"oX c #BBB4B9",
"OX c #DDACB6",
"+X c #9BCCB7",
"@X c #94D0B3",
"#X c #A5C7AE",
"$X c #ABCFBC",
"%X c #B5E0BA",
"&X c #8BABCA",
"*X c #9DAAC2",
"=X c #A8AAC8",
"-X c #B8A7C4",
";X c #ADB7CA",
":X c #B5B3C8",
">X c #B5B8D5",
",X c #8784E9",
"<X c #8E89F1",
"1X c #8FAEEB",
"2X c #C6A9C9",
"3X c #C3BBC4",
"4X c #C6B7C8",
"5X c #BAC5DA",
"6X c #B4D6D3",
"7X c #9FE8C6",
"8X c #A7EBCC",
"9X c #B4EACD",
"0X c #A8F4CA",
"qX c #B7F3CC",
"wX c #ACE9D1",
"eX c #BBE4D5",
"rX c #B4EBD3",
"tX c #BCEBD5",
"yX c #BBF4D4",
"uX c #8CD3EC",
"iX c #AED0F0",
"pX c #ADE2EE",
"aX c #CCC4CB",
"sX c #C6D1CF",
"dX c #D5CBD5",
"fX c #DDD3DD",
"gX c #F8D5DD",
"hX c #C6E5DA",
"jX c #C4ECDA",
"kX c #CAEBDB",
"lX c #D1ECDE",
"zX c #C6F4DA",
"xX c #D3F9DD",
"cX c #D5D5E5",
"vX c #E3DAE5",
"bX c #F9DBE5",
"nX c #D4EBE1",
"mX c #D2EFF2",
"MX c #EDE6EF",
"NX c #F6EAF4",
"BX c #F5ECF6",
"VX c #F6F1F6",
"CX c #FCF4FC",
"ZX c #FDFAFD",
/* pixels */
"X X O X O X X X X X X O X X # X X + - 2 + O X X X X X X X X X X O X X + O O O X X X O O X X X O X X X X X X X X X X X X X X X X ",
"X O O X O # + X X O X X X X X X X X + # X X O X X X X X X X X X X X X O X X X X X X X X X X X X X X X X X X X X X X X X X X X X ",
"X O X X # 2 % O X X X O O O X + O X X X X X O X X X X X X X X X X O O X X X X O O O X X X X X X X X X X X X X X X X X X X X X X ",
"X X O X O # + X X O X O X X X X X X O O + X X X X X X X X X X X X O O X X O O X X X O X X X X X X X X X X X X X X X X X X X X X ",
"X X O X X X X X X X X O X + % # X + + X O X X O X X X X X X X X X O X X + + X X X X O O X X X X X X X X X X X X X X X X X X X X ",
"O X O X O + + O X X X X X # 2 $ O X X X O X X X X X X X X X X X X + X X O X X + + X X X O X X X X X X X X X X X X X X X X X X X ",
"X O + X X X X X O O X X X X @ + X X X X O + O X X X X X X X + + + + X X O O @ $ $ + X X O X X O X X X X X X X X X X X X X X X X ",
"X X X O O O X X X X X O O O X X X O + X X X O X X X + # 3 d R ( ( Z 8 - @ $ 3 < % @ + O O X X O X X X X X X X X X X X X X X X X ",
"X O X O O O X O X X O X X O X X X O O X O O O X O $ 9  .y.C.B.g.g.e.q...Z 6 5 + + # 2 @ O X X X X X X X X X X X X X X X X X X X ",
"X O X X O X X O O X X X O O X X X X X O O X X + 3  .M.B.B.S.G.S.S.4.2.F [ ..Y $ X + $ + + + X X X X X X X X X X X X X X X X X X ",
"X X X X X + + X X O X O O X X O X X X X X X X 3 y.C.B.H.pXmXuXK.K.J.S.<.j z t.U % X X X O + X X X X X X X X X X X X X X X X X X ",
"O X O X O X X X O O X + # + X X X O O X X + 3 $.g.B.uXpXpXuXK.J.G.A.n.4.<.f n ..Z # X X X X X O X X X X X X X X X X X X X X X X ",
"X X X X X X X + O X O # # + X X X O X X X $  .e.S.pXmXmXuXG.S.n.4.4.4.2.<.k n ) { 8 + X X X X X X X X X X X X X X X X X X X X X ",
"X O O + O O $ 6 $ X X O X X X O X X X O O q y.3.K.pXmX5X&X&X(.(.[.&XF.2.<.j p ' { R - X O X O X X X X X X X X X X X X X X X X X ",
"X + + @ O O 3 W 3 X # + X + X X X O O X - ..] f.K.uX*XI.+.h 4 ; ; 7 L y.w.k p / / ) 9 O O X X X X X X X X X X X X X X X X X X X ",
"X O < 2 + O # < + # 9 6 + X X X X + X X 8 +.f 2.g.M.q # > t k x x l f ; q { c c c ) U # X X X O X X X X X X X X X X X X X X X X ",
"O X # @ + O X X X $ Z d # O X O O X X + Z ) p x ^ & o t x 8.d.j.s.a.k.d.i & T | c n T < X X X X X X X X X O X X X X X X X X X X ",
"O X + X O X X O O X $ # + + X O X X X 1 +.I.I.t.; . r l x 8.j.j.j.l.,X<Xb.h & u.{ ' / a + X X X O X X O O X X O X X X X X X X X ",
"X X O X X X X X X O X O + X X X X O # U ;Xv.t.a . > y l x a.d.j.j.k.z.,X<X,Xi 4 9.C m n - X X X X X X X X X X X X X X X X X X X ",
"O X O X X O O + + O X X X + + $ < 4 Z $.[.p./ o * y y k 8.a.a.s.a.D.1X1X<X<Xk.; v ' V M s 2 1 % # + X X X X X X X X X X X X X X ",
"X X + X X + O $ 2 + + $ 2 d R +.M.^.(.*X*X(.a   > y y G D.1X1X7.k g.1XiXiX,X<X5.& r.6.7.` ^ ^ ^ S d 6 < # + + O X X X X X X X X ",
"+ X X O X O X # < 6 U $.I.(.*X;X;X>X5X5X>X!.; . > t u 1.g.1XiXC.u w.F.F.1X<X<Xk.* Y i.] _ x x x _ ` ` ( S a 3 # X X X X X X X X ",
"9 2 O O O O $ 9 o.I.^.5X;Xp.*X>X~.t.cX:Xt.) o . = = u H w.D.C.C.u F g.C.1X,X<Xl.: 7 c.' 7._ ' m V V C V ` ` ( d < + X X X X X X ",
" .Z # X # 8 ) t.:X/.^.5X!.c.5X;X=.~.cXc.#.+.o . = * # u F w.f.f.5.a.f.g.D.z.,Xj.: , c.B { W ~ / ] ' B m N N N ^ n 0 - + X X X X ",
"< $ + % K c.).'.2X'.2X2X'.'.2X2XXX4X2X-XXXp.o . * = * o : u y 8.j.l.b.k.l.l.l.8.= 7 `.) E P ~ +.9.C b m m b b m b ^ n 6 + X X X ",
"X X 1 ) ~.'.'.-X`. XXX'.(.(.'.'. X`.`._./.I.: . * = > > = o r ,.s.j.z.,Xl.b.l.k . o.=X[ I W ~ 9.9.6.M m m g h m m g m n d # X + ",
"X + d u.p.r.r.{ { ^ ( ^ M M ` ^ ^ / n n ^ /.Y . o * > t > . > l 8.d.k.b.j.k.l.l 7 aX!.h v ~ P.z M M b b m h M M m M N ' T < X O ",
"X O 2 ( 0.7.] z z ` y.V.` _ q.V.y.^.0._ 6.;XR.7 . . = r =   * y 5.d.l.l.a.8.a.6.3XBXp.^ ^ O.|.0.6.V N [ _ z z g M { y.+.q # O X ",
"X X + - a ( 0.6.5.5.7.*X[.] 0.&XZ.Z.H.1.6.[.sXU.s + o > *   . > ,.s.l.k.8.i.`.fXBX6Xe.] N.;.W.Z.q.D q.Z.6.B C { u.+.U 3 # X X O ",
"X X X X X # 3 s ( { [ 0.q.D ` H J G H D V D I.aXR.o.K 7 , ; ; i 5.h.(.=X:XdXfXfX X[ D z S Y { [ _ V ] q...+.+.R 9 % + + O X X + ",
"X X X X X X X + $ 2 0 S ( [ [ [ ] ] ] ` _ D ` {.oXR.x.@.@.&.L.Y._.}..XoXoXoX.X/.' M M v Q { 6.r.y.y.+.( Z 6 - + X O X X X O X O ",
"X X X X X X X O X X + + # < 6 q U ( ..{ 0.6.] 0.{.|.T.@.) } o.&.x.U.U.U.U.U.}.4Xc.p v o.) ( U Z 8 3 - @ + X X X X O O X O O O X ",
"X O O X X X X O X X X X X X X O # $ $ 3 ( i.V.V./.T.>.%.) L v K L E } @.U.3XvXMX3XT T q $ + + + X X X X X X X X X X X X X X X X ",
"O X X O X + O X X X X X X X X + % $ O O % 9 Y ) :.:.I e e L L E o.x.R.x.-.OXBXVXNX}.3 + O O X X X X X X X X X X X X X X X X X X ",
"X X $ $ X X X X X X X X X X X @ < % O X O 4 & 4 ! %.e w w #.P.Q.Q.oX:X-.*.*.gXZXBXdX1 X O O X X X X X X X X X X X X X X X X X X ",
"X + < < + O X O O X X X X X X X O + X X O < + W P.&.o.@.x.R.}.oX3XaXvXNXbXbXVXZXZXVXW @ O X X X X X X X X X X X X X X X X X X X ",
"X X + + O + X O X X X X X X X X O X O + % + % :.P.&.&.L.R.}..X3XaXvXBXCXCXCXZXZXZXZX{.d # O X X X X X X X X X X X X X X X X X X ",
"O O X X + O X X X X X X X X X O O X O $ 4 < 5 O.:.%.&.L.R.}..X3XfXMXNXBXCXCXCXCXZXZXoX6 O O X X X X X X X X X X X X X X X X X X ",
"X O O X O X # # O X X X X X X X X + X O # 1 8 O.O.@.@.x.U._.}.3XfXvXMXMXBXVXCXCXCXZX X# X + X X X X X X X X X X X X X X X X X X ",
"X X X O O O 2 < + X X X X X X X X + X X X + @ K @.} E W o.&.L.R.}..XoX3X4XaXdXdXfX.XZ X + O X X X X X X X O + O X X X X X X X X ",
"O X X X X O # # O X X X X X X X O X X X X X X % o.o.L L E } @.&.L.U.R._..XoX3XdXfX) X X X X X X X + X O X $ 3 # X X X X X X X X ",
"# @ O X X O X X X X X X X X X X X X O X X X O # Z o.L K E } @.x.L.R._.}..X.X3XaXU.$ X X X X X X + # + X + 3 W < X X X X X X X X ",
"U 8 + X + + X X X X X X X X X X X X X X O O O + 8 :.I 7 q L } @.&.L.U.Y.R._._.&.1 X X X X X X X X < 2 + X $ 3 # X X X X X X X X ",
"W d + X # $ + X X X X X X X X X X X X X O O X X 8 #X].K & 4 q E } @.&.u.x.L.o.% X X X X X X X X O + @ + X O X X X X X X X X X X ",
"% # O O $ 2 + X X X X X X X X X O O X X X O + + P %XyX@XW 4 4 7 q L W o.P.#X .X X X X X X X X X + O O O O X X + X X X X X X X X ",
"X O X X X # X X X X X X X X X X X O O X X + $ 2 ;.qXqX9X$X$X#XW.W.W.].@X$XqX;.# X X X X X X X X X X O + X X + X X X X X X X X X ",
"O O X O O X O O X X X X X X X X X X O X X + $ 5 E.qXqXtXzXzXxXxXxXzXqX8X0X0XE.< X X X X X X X X O O X O X X O X X X X X X X X X ",
"O X X O O X X X X X X X X X X X X X X X X O X 5 ].qXqXrXzXzXzXzXzXzXrX8X8X0X@X8 X O + X X X X X X X O X O O X X X X X X X X X X ",
"- @ X X + X X X X O X X X X X X X X X X X X X A +XtXtXtXjXkXzXzXzXyXrXwXrX8X@XA O # $ + X X O X X X X X X O O X O X O X O O O X ",
"6 - O X X O X X X X + O O X X X X X X X X X + X.8XjXtXtXhXkXzXzXyXtXrXrXjXwX7XX.# $ < @ X X + + O X X X X X X X X X X O O X X + ",
"# + X X O O X X X X $ $ X X + X X X X X X X $ m.wXkXkXtXkXlXkXtXyXtXrXeXkXtX8XN.< + + X X + X X X X X + O X X X X X X O X X X X ",
"X X X X X X X X X X $ < @ X O O X X X X X X 3 ].rXnXnXeXkXlXjXtXjXkXeXkXkXeXwX].8 X X X + O X # # O X O + X X X X O X X X O + X ",
"+ + O X X O X X X X + + + X X X X X X X X X Z +XeXlXlXhXkXnXhXeXtXjXrXhXkXeXtX+XU X X O O X O - < @ X X X X O O O X X X O O + X ",
"X X X X X O X X X X + # $ + O X X X X X X X R +X6XkXkXhXhXnXkXeXeXhX6XeXlXeXeX6X$.# X X X O O @ # + X X O O O X O X O X X X X O ",
"X O + O X X X + + X X < U < X X X X X X X O 9 X.$.E.E.m.m.m.m.m.m.m.m.m.m.m.m.m.W % O X X + X O X X X O O O O X X X O X O $ + X ",
"O X X O O O X X X O X < Z < O X X X X O + O + + @ % % # # # # # @ # < # # # @ # @ O + + O + X O O O + O X X X X X O O X + 2 # O ",
"X X X X X X X X X X X + # + X X X X O @ < @ X X X X X X X X O + + X X X O X X X X + # # + X X O O O + O X X X X X X X X O @ + X ",
"O X X X X X X X X X X X X X X X X X X + < @ O O X X X + O X @ < # X O X O O O X X O @ @ X X X X O X X X X X + X X X X X X X X X ",
"X X X X X X X X X X X X X X X X X X X X @ O X X X X X + O X @ < $ @ + X X X X X O O O O X X O O O X O O X X O X X X X X X X X X ",
"X X X X X X X X X X X X X X X X + @ O X + X X X X O X X X X O @ $ < + O O X X O + O O O X O O X + + X X O O X X X X X X X X X X ",
"X X O X X X X O X X X X X X X X + # + O O X X X X O X X O + X X # < O O + X X O + X X X X O X + 8 9 @ X + X X X X X X X X X X X ",
"O X X X X X X X X X X X X X X X O + O X X X X X X O O X O X X X X O O X X X X X X X X X X O X # Z Z # O O X X O X X X X X X X X ",
"O X X X + @ + X X X X X X X X X X O O X O X O X X O X X X X X + O X + O X X O O X X O O X O O X # $ O X O + X O O X X X X X X X ",
"+ X X + $ $ # O X X X X X X X X X X X X O X O X X O X X O + O O O + X X X X X O X X + O X X + X X + X X O O + X X X X X X X X X "
};
