/* XPM */
static char *d885f7b7c7f74599c2d20d48b636c518VGHVvUrUQTvehk47[] = {
/* columns rows colors chars-per-pixel */
"64 64 233 2 ",
"   c #000003",
".  c #00000C",
"X  c #000D0E",
"o  c #0B0B0D",
"O  c #06160D",
"+  c #121E0B",
"@  c #010113",
"#  c #020F10",
"$  c #02021B",
"%  c #090C18",
"&  c #041112",
"*  c #091416",
"=  c #0F1910",
"-  c #0A1718",
";  c #0D1A1B",
":  c #111013",
">  c #19171B",
",  c #121B1D",
"<  c #221D1F",
"1  c #371618",
"2  c #16290B",
"3  c #1D340C",
"4  c #1A2616",
"5  c #2C371A",
"6  c #010123",
"7  c #090A27",
"8  c #02012C",
"9  c #121F20",
"0  c #191927",
"q  c #030233",
"w  c #02023B",
"e  c #0B0A39",
"r  c #0B1136",
"t  c #191835",
"y  c #201E21",
"u  c #152223",
"i  c #1A2324",
"p  c #1C2628",
"a  c #1D292B",
"s  c #222325",
"d  c #26292C",
"f  c #2F3627",
"g  c #282C33",
"h  c #312E32",
"j  c #2B3336",
"k  c #2B3638",
"l  c #353437",
"z  c #333B3D",
"x  c #3D3B3E",
"c  c #530C0D",
"v  c #641B1C",
"b  c #492F2E",
"n  c #334D0F",
"m  c #3B423D",
"M  c #424F24",
"N  c #576C26",
"B  c #596F21",
"V  c #0A0A46",
"C  c #100E4A",
"Z  c #0D104E",
"A  c #16164A",
"S  c #161654",
"D  c #1A1B5B",
"F  c #192949",
"G  c #162E54",
"H  c #1C2858",
"J  c #232348",
"K  c #363C43",
"L  c #293154",
"P  c #1E3961",
"I  c #212364",
"U  c #282A68",
"Y  c #2D356B",
"T  c #2B2C72",
"R  c #33347A",
"E  c #413E42",
"W  c #513F43",
"Q  c #743E43",
"!  c #413E6F",
"~  c #3B4245",
"^  c #3A4747",
"/  c #2C4A73",
"(  c #324D79",
")  c #454145",
"_  c #4A454A",
"`  c #434B4C",
"'  c #4D494E",
"]  c #4F4D4E",
"[  c #484B59",
"{  c #524D52",
"}  c #4C5456",
"|  c #555256",
" . c #59555A",
".. c #58595C",
"X. c #6E5356",
"o. c #50634E",
"O. c #666956",
"+. c #4B4E6D",
"@. c #585C63",
"#. c #635E64",
"$. c #5B6364",
"%. c #646266",
"&. c #666B65",
"*. c #626469",
"=. c #6B666C",
"-. c #6D696E",
";. c #71736D",
":. c #676D71",
">. c #6D6B71",
",. c #736D73",
"<. c #706C7B",
"1. c #747175",
"2. c #767777",
"3. c #7B757B",
"4. c #7D7A7D",
"5. c #D91B2D",
"6. c #F60025",
"7. c #BF3C40",
"8. c #ED3655",
"9. c #F44767",
"0. c #63851B",
"q. c #798548",
"w. c #6D8267",
"e. c #7A8775",
"r. c #949F67",
"t. c #80897D",
"y. c #90907B",
"u. c #3C3B88",
"i. c #403D8B",
"p. c #3A5984",
"a. c #44438B",
"s. c #434392",
"d. c #484898",
"f. c #4C4A9C",
"g. c #515193",
"h. c #625F98",
"j. c #486798",
"k. c #536A92",
"l. c #787286",
"z. c #7D7A82",
"x. c #6E6C92",
"c. c #504EA3",
"v. c #5654A9",
"b. c #5C5BB5",
"n. c #615FBC",
"m. c #5668AD",
"M. c #5577A9",
"N. c #5B7DB3",
"B. c #6664BD",
"V. c #6B7BB2",
"C. c #6563C3",
"Z. c #6867C8",
"A. c #6C6ACC",
"S. c #7371CD",
"D. c #6F6DD0",
"F. c #7371D5",
"G. c #7775D8",
"H. c #7976DB",
"J. c #7B79DD",
"K. c #7E7BE1",
"L. c #837D83",
"P. c #8D7F87",
"I. c #F1768D",
"U. c #837EDD",
"Y. c #827EE5",
"T. c #5E81B6",
"R. c #6889BD",
"E. c #698BC7",
"W. c #6B90C9",
"Q. c #7699D8",
"!. c #7AA0DB",
"~. c #7B9AE1",
"^. c #878787",
"/. c #86838A",
"(. c #8B848C",
"). c #8B9887",
"_. c #938A96",
"`. c #938C94",
"'. c #909390",
"]. c #969598",
"[. c #9B949C",
"{. c #A49D84",
"}. c #9BAC94",
"|. c #B2AF8C",
" X c #9B96A2",
".X c #9B95BC",
"XX c #A49AA6",
"oX c #A39CA4",
"OX c #B19FA7",
"+X c #A8A7A8",
"@X c #ABA4AC",
"#X c #AFB0AE",
"$X c #ADA7B5",
"%X c #B3ABB4",
"&X c #B7ACB6",
"*X c #BDB2BD",
"=X c #B7B8B9",
"-X c #EF8197",
";X c #EF9FAF",
":X c #C4B6B7",
">X c #859ECA",
",X c #B5ADC6",
"<X c #8582E9",
"1X c #8885EA",
"2X c #8A85ED",
"3X c #8E8DEF",
"4X c #918CF4",
"5X c #85ABE9",
"6X c #91B0ED",
"7X c #96BBF8",
"8X c #A1B7F5",
"9X c #C4BBC4",
"0X c #C7BAC7",
"qX c #F6B4C2",
"wX c #A6C8FD",
"eX c #B6D1FD",
"rX c #C5C8C4",
"tX c #CCC3CC",
"yX c #CFCCCF",
"uX c #D6CBD6",
"iX c #D8D7D9",
"pX c #DCD2DC",
"aX c #DFD5E0",
"sX c #E3D8E4",
"dX c #E9DEE9",
"fX c #E6E1E7",
"gX c #EDE3ED",
"hX c #F3E8EF",
"jX c #F4EBF5",
"kX c #F5EBF6",
"lX c #F6F2F7",
"zX c #FCF4FC",
"xX c #FDFAFD",
/* pixels */
"X X # X # X X X X X X # X X * X X # 9 p & X X X X X X X X X X X # X X # # # # # ` - X # X X X # X X X X X X X X X X X X X X X X ",
"X # # X # - & X X # X X X X X X X X # * X X # X X X X X X X X X X X X # X X X X ^ u X X X X X X X X X X X X X X X X X X X X X X ",
"X X X X * p , X X X X # # # X # # X X X X X # X X X X X X X X X X # # X X X X X z d X X X X X X X X X X X X X X X X X X X X X X ",
"X X X X # - & X X # X # X X X X X X & # & X X X X X X X X X X X X # # X X # # X g k X X X X X X X X X X X X X X X X X X X X X X ",
"X X # X X X X X X X X # X & , * # & & X # X X # X X X X X X X X X # X X # # X X u K X # X X X X X X X X X X X X X X X X X X X X ",
"# X X X # & & # X X X X X * i ; # X X X # X X X X X X X X X X X X & X X # X X & ; ^ # X X X X X X X X X X X X X X X X X X X X X ",
"X # & X X X X X # # X X X X * # X X X X # # # X X X X X X X X X X & X X # X & ; , ` & X # X X # X X X X X X X X X X X X X X X X ",
"X X X # X # X X X X X # # # X X X # & X X X # X X X X X X X X X X # X X # X * u , ` 9 X # X X # X X X X X X X X X X X X X X X X ",
"X # X X # # X X X X # X X # X X X # # X X # # X X & & # X X # X # X X X X X # & X ~ K & # X X X X X X X X X X X X X X X X X X X ",
"X # X X # X X # # X X X X # X X X X X # X X X # & & & & & & & # & X X X & # X X X j ~ # & & X X X X X X X X X X X X X X X X X X ",
"X X X X X & & X X # X # # X X # X X X X X X X & a } 1.`.oX+X+X[./...i X X # # # X p K X # & X X X X X X X X X X X X X X X X X X ",
"# X # X # X X X # # X & - # X X X # X X X & K z.$X*X$X[./.z.z.(.oX*X&X/.~ ; & # X u @.& X X X # X X X X X X X X X X X X X X X X ",
"X X X X X X X # # X # * - # X X X X X X d 1.oX_.x.! A % . .       : l >. Xz.a X X ; :.; X X X X X X X X X X X X X X X X X X X X ",
"X X # & # # ; g ; X X # X X X # X X # K z.>.l > 7 7 e e C A A A t 7 .   :  .'.` X # *.a X X # X X X X X X X X X X X X X X X X X ",
"X # # & # # a @.a X * & X & X X X & ~ >.K o   $ e A I R u.d.c.v.f.f.i.J @   y z.@.X } k X X X X X X X X X X X X X X X X X X X X ",
"X # u p & # * u & * k g & X X X X K @.s   . q S U R d.b.C.A.F.g.Y g.H.F.f.t   o =.} ~ ^ X X X # X X X X X X X X X X X X X X X X ",
"X X * * & # X X X - ^ ~ * # X X j @.0   @ q S T s.c.b.C.Z.A.A.v.A.B.G.2X1XS.L   o %.*.} X X X X X X X X X # X X X X X X X X X X ",
"# X & X # X X # # X ; - & # X i @.t . . 8 C U u.Y L f.C.Z.C.n.C.A.K.<X1X2X4XU.Y   : 3.1.X X X X # X X # # X X X X X X X X X X X ",
"X X # X X X X X X # X # # X # } K .   6 V I T U J a.b.C.C.b.B.C.A.J.Y.<X1X3X4X1XL   > 4.u X X X X X X X X X X X X X X X X X X X ",
"# X # X X # # & & # X X X # g [ %   @ V D I U T i.c.v.b.C.C.A.D.D.F.H.K.<X1X3X4XU.J   l $.& X X X X X X # X X X X X X X X X X X ",
"X X & X X & # ; p & X # X & } g .   8 S D H I T u.s.s.d.v.n.C.b.B.Q.5X6X3X1X1X3X4XB.%    .z X X X X X X & & & # X X X X X X X X ",
"# X X # X # X * - & X # X a [ %   @ C D D H I R m.E.Q.V.d.f.s.( M.!.6XwXeX8X1X1X3X4X!   > 1., X X * - X & ; ; & X X X X X X X X ",
"z p # # # X # # # & & # X ` L .   6 S D D D U j.W.5X7XwX8Xg.A P j.W.5X7XeXeX6X<X2X4XS.r   | } X # u u & & 9 9 & X X X X X X X X ",
"$.^ & X # X & X X X X X - @.t     8 A S S A ( p.T.!.6XwXeX>XF P p.N.Q.5X7XwX8X<X1X3X3XR   > 1.- & ; ; & X & & X X X X X X X X X ",
"u ; # X X X # X X X X X p +.%     8 V C e F p.( j.W.5X7XwX6XG G ( M.E.!.k.>X8X<X1X1X3Xv.$   %.K X # & X X X X X X X & * X X X X ",
"X X X X X X X X X X X X k [ .   . 6 w w 6 L p.( j.N.Q.R.M.5XL F / j.N.E.M.!.6XK.2X1X2XB.r   x :.X X X X X X X # & X & u ; & X & ",
"X X X X X X X X X X X & ^ [ .   . 6 q 8 @ F / / p.M.R.M.k.Q.L 7 P p.j.N.W.!.~.J.<X<X1Xn.r . s /.& X X X # = O X # X # ; & & X X ",
"X X X X X X X X X X X - } +..   . 6 q 6 @ % G P / j.M.N.N.m.g.c.b.m.j.j.M.N.G.K.Y.Y.Y.c.r . > [.u X O O 2 n B 3 X X X X X X # X ",
"X X X X X X X X X X X , @.+.@   @ 6 8 8 6 . @ r F P / P Y s.b.A.H.<X<XB.m.A.H.H.J.J.F.u.7 . > #Xd O n 2 2 n 0.B & X X # X X X X ",
"X X X X X X X X X X X ; @.+.$   . 6 6 8 q 6 @ . @ 7 $ q I s.v.C.D.J.1X2XK.K.K.H.G.F.b.I $   l tXj O 3 2 + n N N & X X & # X X # ",
"X X X X X X X X X # X ; *.x.7   . $ 6 8 q w w q 6 $ @ q D u.c.b.C.F.K.1X1XG.K.<X<XF.s.e .   1.iXj X 3 n + f N M X # X X X # X # ",
"X X X X X X X X X X X & *. XJ   . $ 6 6 q w w V V 6 . q S T s.v.n.A.G.Y.1XF.D.H.<X<Xu.$   d tXiXp X 4 M 5 O.q.5 X X # X # # # X ",
"X X X X X X X # X X X X ..#X+..   $ $ 6 6 w Z D C .   6 Z T u.f.v.C.A.H.<XF.Z.A.F.K.b.$ : [.lX=X* X # = 5 {.y.- X X X X X X X X ",
"# X X # X # # X X X X X g =X(.k   @ $ @ @ w Z S w     @ V I R s.v.n.A.F.J.B.b.b.n.B.i.t `.gXxX4.X X X X 4 '.rXz X X X X X X X X ",
"X X ; ; X X X X X X X X * +X=Xz.j       @ q V V 6     . 8 S T s.b.A.H.H.F.f.s.d.u.d.+.$XgXxXpXj X X X X 4 r.|.4 X X X # X X X X ",
"X & u u & # X # X X X X X $.iX#Xz.~ o     6 w V 6 .     @ w I s.v.C.G.<XA.s.R a.g..XuXjXzXlXz.X X X X X 2 q.r.; X X X X X X X X ",
"X X & & # # X X X X X X X i =XyX#X/.@.l : . 6 q 6 .       8 D R f.b.A.J.S.h.x.,XuXfXjXjXhX$Xu X X X # & s O.1., X X X X X X X X ",
"# # X X & # X X X X X X X X $.yXrX#X].4.#._ l d 0 : : : : t U a.h.V..X,X0XtXpXpXpXpXpXuX&Xk X X X X < s d ) p X X X X X X X X X ",
"X # X X # X - * # X X X X X * ^.yX=X+X]./.3.,.,.,.1.3.L.(._. XXX%X*X:X0X0X0X0X0X0X0X0XoXz # X X X : c Q , X X X X X X X X X X X ",
"X X X X # # i u & X X X X X X i ].rX#X[.(.4.,.-.-.1.z.(.`.[.[.XX@X@X@X%X%X%X%X%X$X@X[.~ X X X & , ' X.1 # # # # X X X X X X X X ",
"# X X X X # * - # X X X X X X X i ^.=X+X]./.1.%.....#.=.,.4./.(.`.[.[.[.[.[.[.].(.[.0X&X:.p s d ) ,.k & X ; a - X X X X X X X X ",
"* & # X X # X X X X X X X X X X X i ).#X+X'./.-...{ { {  .#.=.,.1.3.4.3.3.1.1.L.XXuXdXgX0Xs o o x j & X & a @.u X X X X X X X X ",
"` j & X & & X X X X X X X X X X , z }.).t.^.t.2.=. ._ E E E ) _ ' ' { | #.3.oXtXgXgXgXgXpX,.i X X , p & X ; a * X X X X X X X X ",
"..K & X - ; & X X X X X X X X i i ` }.e.&.] m x E b l h d d h x ' #.3.`.OX0XuXhXxXzXlXgXhXfX..X X & * # X X X X X X X X X X X X ",
", * # # ; i & X X X X X X * > > & o.e.;.&.b b 1 1 W ..#.-.1.L.`.XX%X0X:X7.5.8.9.qXxXxXjXgXjX].# # X # # X X X & X X X X X X X X ",
"X # X X X * X X X X X X - l 1 o , M &.2.#.c c c c =.<.(.y.{.@X|.#X,X$X0X5.6.6.6.I.xXxXzXjXlXiXa X X # & X X & X X X X X X X X X ",
"# # X & # X # # X X X X j x > # } %.4.4.X.v v v Q P.l. X{.|.*X|.:X0X$XsX;X-XI.I.;XxXxXxXlXzXlX..X X X # X X # X X X X X X X X X ",
"# X X # # X X X X X X X < , X u t.^.^.4.1.,.3.P.`.[.XX@X&X*X0X0XtXuXdXlXzXxXxXxXxXxXxXxXxXxXxX'.X X # X # # X X X X X X X X X X ",
"9 & X X & X X X X # X o o X X m '.'.^.4.3.4.L.(.].oX@X%X&X:X0X0XyXdXjXjXzXzXzXzXxXxXxXxXxXxXxXrX, X X X X # # X # X # X # # X X ",
"g 9 X X X # X X X X & o # X X } ).).t.4.3.4./.(.[.oX+X%X&X*X0XtXdXjXjXjXlXzXzXzXzXxXxXxXxXxXxXfXj X X X X X X X X X X # # X X & ",
"- & X X X # X X X X ; ; X X * o.e.e.4.2.3.4./.(.[.oX@X%X&X*X0XsXgXhXjXjXjXzXzXzXzXzXxXxXxXxXxXlX} . X & # X X X X X X # X X X X ",
"X X X X X X X X X X ; i * X * o.w.e.2.1.1.3.L.(.`.[.XX@X&X0XuXsXdXgXhXjXjXjXzXzXzXzXzXzXxXxXxXxX*.X X # # X X X X # X X X # & X ",
"& & # X X # X X X X & & & X * &.e.2.1.-.>.,.3.L.(.`.oX@X%X0XtXuXaXdXdXgXhXjXjXjXzXzXzXzXzXzXxXzX*.& X X X X # # # X X X # # & X ",
"X X X X X # X X X X # - ; & & ~ >.1.=.#.#.#.=.,.z.(.`.[.@X%X*X0XyXuXpXsXsXdXdXgXgXgXgXgXdXdXpX&Xz X X X # # # X X X # X X X X # ",
"X # & # X X X & & X X u } u X X z e.-. .' ) E _ '  .#.-.3.L.(._.`.[.oXXXXX@X@X%X&X*X0X0X0XtX3., X X X # # # # X X X # X # ; # X ",
"# X X # # X X X X # X 9 ^ u X X - &.2.%.| ' _ ' {  .@.%.-.,.3.L.(.`.[. XXX@X&X*X0X0XuXsXdXpXK X # # & X X X X X X X # X & p ; # ",
"X X X X X X X X X X X & ; & X X X k ;.&.| ' ' {  .#.=.,.3.L.(.`.[.oXXX@X%X&X*X*X0XtXpXaXsX_.* X # # & X X X X X X X X X # * & X ",
"# X X X X X X X X X X X X X X X X & ` &.| _ ) _ ]  .#.=.,.4.L.(.`.[.oXXX@X@X$X&X*X0XtXtX@Xd X X # X X X X X & X X X X X X X X X ",
"X X X X X X X X X X X X X X X X X X * ` | ) l l E _ | #.=.,.3.L.(.`.`.[.[.oXXX@X@X@X%X[.k X # X # X # # X X # X X X X X X X X X ",
"X X X X X X X X X X X X X X X X & * X * m ) h d h l ) {  .%.-.1.4.L.(.(.`.`.].[.[.[./.j X # # X & & X X # # X X X X X X X X X X ",
"X X # X X X X # X X X X X X X X & ; & X * d h s y s h x _ | ..%.>.1.3.L.L.L./.(./.%.p X X # X & j z & X & X X X X X X X X X X X ",
"# X X X X X X X X X X X X X X X X & # X X X , s > o : y h x _ {  .#.=.-.,.,.,.#.z * X X X # X & ~ ^ * # # X X # X X X X X X X X ",
"# X X X & & & X X X X X X X X X X # # X # & d i d >     o > d l x ) ' {  .3.,.; X X # # X X # X - ; # X # & X # X X X X X X X X ",
"& X X & ; ; * # X X X X X X X X X X X X & ~ } j | | & X X o o : > 0 i i s -.oX; X X & # X X & X X # X X # X & X X X X X X X X X "
};
