/* XPM */
static char *_41a8394c318441dd9ea96bafd69c5e5NAo5T7fmI8rM3MQI[] = {
/* columns rows colors chars-per-pixel */
"64 64 158 2 ",
"   c #272B2C",
".  c #292C33",
"X  c #2E3135",
"o  c #363B3B",
"O  c #393E3C",
"+  c #41463F",
"@  c #363940",
"#  c #393D42",
"$  c #3D4144",
"%  c #3F4249",
"&  c #404445",
"*  c #474C46",
"=  c #484E46",
"-  c #414649",
";  c #43494A",
":  c #494D4C",
">  c #4C504D",
",  c #494D51",
"<  c #4C5152",
"1  c #515655",
"2  c #555A57",
"3  c #565A5B",
"4  c #5A5E5E",
"5  c #5D625C",
"6  c #60655F",
"7  c #565960",
"8  c #5A5E62",
"9  c #5D6164",
"0  c #5F6269",
"q  c #616565",
"w  c #646966",
"e  c #62666B",
"r  c #65696A",
"t  c #696E6D",
"y  c #6D726D",
"u  c #71766F",
"i  c #676A71",
"p  c #6A6D72",
"a  c #6E7273",
"s  c #6E7178",
"d  c #717673",
"f  c #757A74",
"g  c #787D77",
"h  c #727579",
"j  c #767A7B",
"k  c #797E7C",
"l  c #7D827D",
"z  c #80867C",
"x  c #777A81",
"c  c #7A7E82",
"v  c #7E8283",
"b  c #818684",
"n  c #858A84",
"m  c #888D87",
"M  c #83868A",
"N  c #868A8A",
"B  c #898E8C",
"V  c #8A9086",
"C  c #8D928C",
"Z  c #90958F",
"A  c #92988E",
"S  c #868990",
"D  c #8A8E92",
"F  c #8E9292",
"G  c #919693",
"H  c #959A94",
"J  c #989D97",
"K  c #919599",
"L  c #969A9A",
"P  c #999E9B",
"I  c #9BA197",
"U  c #9DA29C",
"Y  c #A0A59F",
"T  c #A3A99F",
"R  c #979AA1",
"E  c #999DA0",
"W  c #9EA2A1",
"Q  c #A1A6A3",
"!  c #A5AAA4",
"~  c #A8ADA7",
"^  c #A1A5A9",
"/  c #A6AAAA",
"(  c #A9AEAA",
")  c #ABB1A7",
"_  c #ADB2AC",
"`  c #B0B5AF",
"'  c #B3B9AF",
"]  c #ABAEB2",
"[  c #AEB2B2",
"{  c #B2B6B1",
"}  c #B5BAB4",
"|  c #B8BDB7",
" . c #B2B6BA",
".. c #B6BABA",
"X. c #BABEB9",
"o. c #BBC1B7",
"O. c #BDC2BC",
"+. c #C0C5BE",
"@. c #C2C8BE",
"#. c #BABEC1",
"$. c #BEC2C1",
"%. c #C1C6C1",
"&. c #C5CAC4",
"*. c #C8CDC7",
"=. c #C1C5CA",
"-. c #C6CACA",
";. c #CACEC9",
":. c #CBD1C7",
">. c #CDD2CC",
",. c #D0D5CF",
"<. c #D3D9CF",
"1. c #CED2D1",
"2. c #D2D6D0",
"3. c #D5DAD3",
"4. c #D4D9D2",
"5. c #D6DBD4",
"6. c #D7DCD5",
"7. c #D7DCD6",
"8. c #D5DAD4",
"9. c #D9DED7",
"0. c #D8DDD6",
"q. c #D8DDD7",
"w. c #D6DBD9",
"e. c #DADFD8",
"r. c #D9DED8",
"t. c #DADFD8",
"y. c #DBE0D9",
"u. c #DBE0DA",
"i. c #DDE2DB",
"p. c #DEE3DC",
"a. c #DFE4DD",
"s. c #DDE2DB",
"d. c #E0E5DF",
"f. c #E0E5DF",
"g. c #DEE3E0",
"h. c #E2E7E0",
"j. c #E2E7E0",
"k. c #E3E8E1",
"l. c #E5EAE3",
"z. c #E5EAE4",
"x. c #E7ECE6",
"c. c #E5EAE3",
"v. c #E8EDE7",
"b. c #E6EAE9",
"n. c #EAEFE9",
"m. c #EAEFE8",
"M. c #EBF0E9",
"N. c #EEF3EC",
"B. c #EFF4ED",
"V. c #EDF2EB",
"C. c #F1F6EF",
"Z. c #F0F5EF",
"A. c #EDF1F2",
"S. c #F2F7F0",
"D. c #F6FBF4",
"F. c #F5FAF3",
"G. c #F9FEF7",
"H. c #FBFFFA",
/* pixels */
"s 7 8 i c c j v r N t k k / ! n q W Q N [ b X.t N A.$.W s ] / / P * m t = n | l :.! >.>.A d.z.O.o.k.` ~ x.h.:.r.h.l.3.Q n 3.>.>.",
"p p e e s K N c j b q l B / U k P  .N K M B W N / ;.( $.X.P L ;._ w y U C 5 n / n &.,.;.O.*.&.*._ q.X.&.u.} %.M.8.r.>.Y Q k.8.>.",
"i i < p i K v c N b w b B K F n >.{ j B d F N W W X.( ( t.-.=. .g n G O.n d ! C n >.} ) >.X.;.&.Q u.*.y.3._ 7.l.a.*.| ! ,.p.>.u.",
"p 8 # M j N h N N N j B b d B Q 1.H b d b H B W =.K B =.b.-.$.U q X.H Y ! n f O.U } o.~ .._ u.&.U y.:.7.4.,.D.o.2.q.@.H 3.h.r.3.",
"e i , R M S c D N N v F N a C ! X.B B d B ( K P ;.Q Q 2...X.$.l Q { X.Q t m G &.C ` x.| { ) O.r.J &.O.,.4.q.B.! ~ N.p.C &.C.C.o.",
"% x i D j N F c N N b B L b J C ( P B B b $.L W U $.1.;.K X.1.C l X.&.C m G d &.U >.7.I *.;.Q m.U _ @.u.4.%.;.o.! 3.>.@.u.r.a.>.",
"X x h M s s F j B L G l K B ! m P H G H H { U U / ~ _ >.g.H ! r.n 6 / y.Q 2 g X.O.r._ U 4.l.X.3.! ~ :.>.@.} ~ *.&.&.| m.h.O.>.v.",
"@ h x D x 7 D N D / Q d k k _ P B l Q C O.H / H [ =./ Q H.W G 2.l G X.%.C = H ~ ` %._ h.2.p.p._ Q ~ >.) ! ..J ..>.l.*.q.| :.l.u.",
"0 ] K h c c v r -.j d X.j t n G H g J ~ ~ n ! U P 8.! H 4.m.%.d l z.>.H ..d @.G U >.@.! G 3.u.;.O.&.@.Q V U .._ { H.&.V ;.d.O.>.",
"8 =.p s E h M 9 1.q 4 O.N l P b n b G X.~ Y ! J Q { _ ` _ ,.v.I %.&.G >.,.m I _ G ` d./ ~ B %.8.>.X.3.Y U V { O.} y.,.{ &.q.,.&.",
"S h c c h M b 1 ..N r Q L N C g C U m ~ A ` } Y / *._ Y } O.:.>.>...U &.X.Y Q U b ..7.>.P B Y *.*.@.&.:.A Y m &.{ } 2.q.%.3.z.*.",
"R 8 M S i N B p k [ b b Q B k m I ` m G A { &.Q ..,.~ J %.o.` 3...{ 7.! J U %.U m @.&.;.P | ! Q &.@.o.,.J ` u / _ U @.u.;.q.B.7.",
"p  .0 M ] s W / : j b B [ K l J G ` H H o.} ,.I ' ! O.@.~ _ o.X.&./ r.o.I Y *.&./ { &.J ..{ &.Q 4...2.J &.J C C { Y ~ &.8.y.d.d.",
"e D x K ] D E  .r o v (  .L g C I ' A H :.) 6._ J O.c.:.Y C n I 2.X...4.P ;.*.>.o.| { U Y ! %.2.q.>.o.H &.U U U @._ U } u.y.,.3.",
"c . ] ^ M #.c B K q Q F $./ 2 U ~ o.l I O.I @.} C c.H.| T z = u >.;./ >.! a.>...~ :.X.o.m { O.z.&.d.J @...Y J X.&.) ! O.7.y.>.@.",
"x % ] / W #.e 9 L =.;.> %.X.O >.I | u | O.H U I Y *.G.@.n n 5 + q.%.` >.4.*.2.| A :.N./ ! ..y.:._ ,.U >.8.n U &.&.U _ >.2.y.r.{ ",
"d t { L K F b t / { L K P { < 8.{ Y ~ Y f } { U { *.H.v.V d > H &.h.Y *.h.} %.U } &.>.A 2.&.>.;.U 4._ o._ J 4.X.8.X.p.2.o.p.8.X.",
"a C ( W B d k r (  .W ( b j t ..;.~ H H C %._ P / q.7.N.! k J %._ | 2.@.X.>.:.,.*.) } &.>.~ S.) ! | o...} O.*.@.q.X.p.r.O.8.h.l.",
"b / b L K b v 9 ;. .C _ N t ( P ! G V ! %.r.! H ..:.{ r.:...&.%.! >.@.*._ / x.>.o.n _ >.%.H >.! 2.! ..U o.B.%.O.l.O.3.d.>.8.p.z.",
"B / j C H P b j 2.[ F W K j =.H b l m / p.q.J U _ { ;.*.>.d...! %.k.J O.%.C >.&.@.H p.&.r.>.! r.V...X.J { m.&.,.y.| O.3.a.m.y.&.",
"b P P K n P b [ ! !  .P P v / ! U V b H r.>.H ~ n O.N.>.X.@.| ! l.:.! _ 2.U n d.>.~ y.@.z.F.o.a.u.>.&.` _ %.4.z.&.X.{ %.r.M.h.o.",
"K F Q F N Q B  .v B  .L [ ( / ..! C m H l.8.Q / n 7.*.*.O.Y h.{ x.v._ &.q.m m d.3...~ *.d.V.G.} 7.3.{ X.&.;.h.4.&.3.%.O.&.>.8.o.",
"Q B F N F P ! Q N n Q G Q $.$.X.H C ~ _ h.;._ | { :.P { >.Y x.o.,.H.} q.:.B >.&.4.q._ 3.S.V.H.;.d.2._ X.>.2.y.;.>.r.O.%.;.O.&...",
"G F G F B d  ./ L L ( H y B $.X.U ! :.` o.U / 2.>.) ~ _ %.U o.>.%.%.2.&./ 3.F.%._ k.%.o.F.d.{ C.8.r.7.&._ _ ;.v.%.@.Y &.l.>.*...",
"W k L K 4 ;.;.v U P $.N d N n r.{ / ` n &.X.H V.*.Y x.C b >.*.O.| _ d.{ @.r.>.3.*.y.&.! H.x.| >.H.r.u.x.P O.%.:.r.X.H y.O.8.| %.",
"F B / t { P K F / Q _ j N P d X.N.n V I O._ Y X.r.Y >.Q Q ..{ :.h.q.2.4.%.A ;.8.>.l.,._ S.l.>.l.H.m.r.X._ %.*.p.>.~ ;.2.&._ { ` ",
"B P  .t >.F N P P /  .L Q l 2 z.O./ V g X.{ ~ { %.! O.| >.{ ~ O.4.r.%./ _ o.H.@.>.z.q.} 7.r.l.S.D.8.H.b H._ q.*.%.d ;.N.r.m J >.",
"G F / L F Q [ F k ( =.K W k 3 H.P O.G t } | ....U o.| Q 2.%.O...8.:.q.C P d.v.Q >.l.q.&.>.q.C.V.a.x.h.{ 3.8.X.X.| u O.H.:.U H >.",
"L k B _ f W ..v v ! / r L / f 2.7.P C I { ) &.U U *./ m %.&.>.O.l.| :.o...! &.y.,.v.7.y.u.l.D.a.N.m.p.%._ >.o.o.| { y.;._ ;...A ",
"Q k v ! { N H B / N F b / / a $.;._ } Y _ _ | ! U { ~ Q p.%.} _ l.q.~ 2.q.n u.H.>.z.*.x.m.M.C.3.M.>.H...7._ ;._ %.2.d.~ O.%.>.B ",
"[ B n L ;.k G P [ j ( X.( F a ..Q &.q.G _ | ! o.Q U _ o.N.;.Q U 4.H.&.O.,.H q.,.>.l.} v.S.v.m.y.*.p.p.7.8.2.Q | ..q.O...:._ ;.X.",
"] K M K W v / H B N 8.{ N / C l u.C &..._ { ~ ~ | ! { ! 3.>.{ / m h.V.{ @.) :.F.2.V.{ V.H.N.B.C.&.a.>._ k.&.I >.H H.{ ;./ | &.;.",
" .F v h v j g.U N W >.! Q U Q U Q _ *.` ,.*.f Q O.U ~ Q 8.N.z.Q l } G.3.C.;.Q H.l.} q.V.M.F.a.k.m.2.2.z.! | ,.u.o.%.8.U J { J 2.",
"[ K h h v F X.k F / 8. ._ ! ) { b O.J O.8.Q } ~ ..Q { ) m.h.X.{ C ..H.u.v.@.Y v.p.>.d.v.x.M.d.p.d.o.x.3.>./ 8.&.Y >.2.k C ! _ J ",
"W K p e j / U a H ! 8.O.{ Q ) $.m &.J >.;.C ;.~ U O.7.J 4.F.} O.J ) z.;.4.%.O.N.>.V.l.d.v.v.v.r.2.%.8.m.&.O.&.O.) O.` y J n _ C ",
"F K c , a W J F L H O._ _ J Q O.! _ *.4...! { ` ~ O.k.J o.H.O.2.` ` 4._ | ,.z.C.o.G.d.y.C.C.F.3.>.>.>.B.| %.X.*.q.J C G _ d H @.",
"L / W # 9 d U  .L b W J ) W ~ O.~ H 8.2.` X._ o.4.I ;.&.%.p.{ p.7.>.q.~ ..y.F.8.o.D.p.y.G.G.S.;.>.&.M.8.7.~ %.&.3.m U _ _ J C q.",
"[ =.[ % < - H  .J v H H | | | O.Q ~ o.4.| / O._ 3.Q ;.7.%.r._ o.d.q.p.o.>.k.S.:.>.z.a.l.D.D.x.*.&.>.k.h.8.} } @.Q G %./ H %.Q { ",
"$.-.L < ; O B U U N W P O.O.| _ _ O.) :.O.Y @.! O.2.8.*.O.x.X.) 7.:.>.>.l.2.d.u.r.>.d.V.V.C.a.7.>.p.*.v.%.*.! O.H H @.P G ) / A ",
"..$.h 8 ; ; m B U F / W O.o.~ J ...._ O.@...O...*.x.%.*.8.p._ >.u.%.O.>.l.{ *.v.p.| d.C.l.M.p.V.z.4.>.X.2.{ ..o.` n U P ! d Q G ",
"D  .j < < j y b U C /  .l _ %.O.Q o.! _ z.r.~ _ *.;.o.p.2.! H.>.2.~ p.H.@.F._ @.>.N.l.@.h.F.2.l.v.2.) y...n J >.O.n l n U m C l ",
"N v s 9 5 W U 1  .v C ~ I _ X.:.G _ / ..h.u.O.&._ { >.&._ d.r.3.%.H ,.a.*.k.| q.M.r.3._ U &.u.v.D.u.! l.{ y I k.B n m d G H G u ",
"K N 9 , N P l 3 ..l v J o.O.| &.C ! ` O.7.r.3.p.o.o.p.{ O.h.o.%.} G >.>.7.r.o.k.l.| 3.%.A o.V.l.q.>.! l.%.m U O.k G G d P I G l ",
"P c 8 9 ( d < r U C J m *.>.| _ P ! ..%.>.8.p.z.O._ %.U H.o.:.%._ _ q.2.7.k.X.q.y.} y.7.~ *.M.y.@.@.| >.;.4.~ G H U A g ! G m A ",
"N - 9 F / a w < F U ~ m O.%._ ) / _ { o.*.4.p.l.,.X.| C D...../ ~ %.:.>.o.B.%.3.S.q.q.@.{ >.3.q.2.o.3.&.&.H.~ U H U V d ! G b m ",
"j 8 3 p L F a < W W ! C / ) U o.) ..{ ..:.2.>.y.p.>.*.G &.m./ { Q | ` %.! C.3.d.M.v.r.| *.h.,.3.>...x.k.4.V.G Q l H G d U Y H l ",
"c N , - N L r h U / W C C [ U ) Q @.| | 4.;.| >.*.>...Q %.H.a.m.{ ! _ >.o.v.h.h.3.a.z.:.7.G.a.*.O.&.p.S.p.r.I G g b C l J I Q C ",
"c 9 < j a B v n B [ ~ n l :._ V U ;.%.o.q.@.Q o.z.N._ | r.) M.q.*.I O.v.l.d.z.q.y.y.V.:.@.N.l.X.*.V.&.q.4.p.>.A n t l n G l U _ ",
"M h 8 j v 3 P L Q Q ~ t P ~ P ` C <.o.*.&.>.X.V >.<.*.| 2.&.~ y.%.O.p.d.C.F.3.C.y.| l.>.U Y v.>.z.;.3.>.7.H.>.k H l b H g U G P ",
"p t e v N 4 P K Q W P l G U ..H y &.>.&.| y.>.T ) @.>.` ` :.@.@.2.>.q.y.S.G.d.d.z.{ 3.C.} @.v.>.8.M.8.| &.y...&.` G l b g Y C C ",
"8 r h D F r L F U P C C V H &.l V ! @.6.&.>.` | ) } 3.o.~ ,.6.o.*.u.7.u.h.z.M.r.N.) @.H.O.4.l.>.l.2.7.>.G O.>.7.~ ` ~ B d m l I ",
"r s M F F d L B K P H C B P _ g ) H ) :.@.<.! } @.O.q.,.&.>.*.:./ u.y.r.*.*.F.d.x.~ O.F.| *.l.>.m.%.,.q.C >.q.X.P %.;.P l l k ! ",
"c v D M N k L b B U U b A ~ n n A U X._ Y x.>.} o.>.,.@.3.,.` >._ q.y.r.O.*.G.d.8._ 7.a.%.o.l.>.>.d.2.O.%.x.%.&.{ &.&.H C V l I ",
"N M K k v v K k B H G l H ` d H C U o.o.H %.,.,.~ >.%.U &.,.~ o.,.3.q.7.:.h.H.3.*.o.l.u.y.%.p.4.;.r.z.*.>.r.>.y.&.*.2.U B l B ` ",
"v M W c v M L v H N d C J _ C G U G Q 8.U G X.7.| o...Q X.;._ | u.@.3.3.:.N.F.3.>.&.&.3.v.2.>.h.a.%.N.8.2.} >.l.>.%.l.| G k U >.",
"h b ( N b D P N U k 1 U H ! ` B G G C &.H P &.o.h.! _ %.%.O.} %.*./ 7.,.o.l.v.a.q.*.I *.k.u.o.C.p.r.a.| H.Q H N.h...r.&.| U X.:.",
"9 h K v c W P v Q k 2 _ U B / 3.n q B U ! _ / ;.>.&.8./ O.&.X.Q 4.} B.>.{ D.z.o.S.>.} ;.V.X.>.k.u.;.N.>.r.O.} r.u.p.*.| ,.U @.m.",
"r t h ^ L j B C B Q U Q m m Q | m 5 n U _ U U %.;.%.O.X./ ! ! %.q.X.&.&.*.D.F.@.O.@.*.7.v.o.r.B.8.4.k.r.h.4.>.k.k.h.q.q._ _ h.M.",
"r c t E F r P C N { &.G n m C H C t L ( %.F N W H ;.X...K (  .;.O.*.*.4.&.*.B.v._ &.7.7.k.>.N.V.r.x.p.N.z.h.h.d.h.r.d.C.C | H.m.",
"c c e M k r P P / P [ n I C f l P H O.O.;.N d a 4 Q P Q Q { $.;.{ &.8.q.o._ 4.H.,.q.8.&.y.h.H.3.p.D.p.H.p.p.z.3.a.2.h.C.U O.H.B.",
"^ 8 3 N N r j [ $.F U v U H g g Q -.2. .{ b t 3 3 < 2 n =.U ! 8.,.~ @.o.&.q.%.d.p.r.4.%.q.v.H.%.8.v.8.H.q.q.x.8.h.3.d.h.2.&.H.H.",
"L 9 t v v c k U { U ! B n G G k / b.1.Q B j t q 9 O $ > { [ Q >.3.U O._ | v.*.>.&.&.7.4.r.r.D.o.>.%.;.S.y.a.S.x.y.8.7.,.z.&.B.D.",
"v v j h s b L N Q W W W d C ) b Q A.$.Q h d t c 8 < :   B w./ =.O.} u.o.H @.8.2.&.X.3.d.a.>.z.{ y.! *.l.m.M.D.B.r.u.2.>.*.*.v.h.",
"N N 9 v j q W L P B n { d B ..m P A. . .j s q N 9 & O X c t.B ;.X.,.z.&.n Q x.;.d.O.>.h.k.;.u.Q D.U >.p.F.S.S.m.a.v.8.u./ 2.C.8."
};
